<svg xmlns="http://www.w3.org/2000/svg" viewBox="0 0 14.55 11.29"><defs><style>.cls-1{fill:#fff;stroke-width:0.22px;}.cls-1,.cls-2{stroke:#fff;stroke-linecap:round;stroke-linejoin:round;fill-rule:evenodd;}.cls-2{fill:none;stroke-width:0.5px;}</style></defs><g id="Layer_2" data-name="Layer 2"><g id="Capa_1" data-name="Capa 1"><path class="cls-1" d="M6.72,11.05,2.92,7.73a.59.59,0,0,0-.49-.16H.75a.65.65,0,0,1-.64-.65V4.36a.64.64,0,0,1,.64-.64H2.43a.63.63,0,0,0,.49-.16L6.72.24a.4.4,0,0,1,.69.3v10.2A.41.41,0,0,1,6.72,11.05Z"/><path class="cls-2" d="M11.51.25A6.06,6.06,0,0,1,14.3,5.64,6.07,6.07,0,0,1,11.51,11"/><path class="cls-2" d="M10.22,2.15A3.93,3.93,0,0,1,12,5.64a4,4,0,0,1-1.81,3.5"/><path class="cls-2" d="M9,4.13a1.69,1.69,0,0,1,.78,1.51A1.68,1.68,0,0,1,9,7.15"/></g></g></svg>