<svg xmlns="http://www.w3.org/2000/svg" xmlns:xlink="http://www.w3.org/1999/xlink" viewBox="0 0 263.4 262.43"><defs><style>.cls-1{fill:none;}.cls-2{fill:#fff;fill-rule:evenodd;}.cls-3{clip-path:url(#clip-path);}.cls-4{fill:#279d60;}.cls-5{fill:#289d5f;}.cls-6{fill:#289e5f;}.cls-7{fill:#289e5e;}.cls-8{fill:#299e5e;}.cls-9{fill:#299f5d;}.cls-10{fill:#2a9f5d;}.cls-11{fill:#2a9f5c;}.cls-12{fill:#2ba05c;}.cls-13{fill:#2ba05a;}.cls-14{fill:#2da05a;}.cls-15{fill:#2da059;}.cls-16{fill:#2ea159;}.cls-17{fill:#2ea158;}.cls-18{fill:#30a158;}.cls-19{fill:#30a257;}.cls-20{fill:#31a257;}.cls-21{fill:#31a256;}.cls-22{fill:#32a356;}.cls-23{fill:#32a355;}.cls-24{fill:#33a354;}.cls-25{fill:#33a454;}.cls-26{fill:#34a453;}.cls-27{fill:#35a552;}.cls-28{fill:#35a551;}.cls-29{fill:#36a550;}.cls-30{fill:#36a650;}.cls-31{fill:#37a64f;}.cls-32{fill:#38a74f;}.cls-33{fill:#38a74d;}.cls-34{fill:#39a74d;}.cls-35{fill:#39a84d;}.cls-36{fill:#3aa84d;}.cls-37{fill:#3aa84c;}.cls-38{fill:#3ba94c;}.cls-39{fill:#3ba94b;}.cls-40{fill:#3ca94b;}.cls-41{fill:#3caa4a;}.cls-42{fill:#3daa4a;}.cls-43{fill:#3daa49;}.cls-44{fill:#3eaa49;}.cls-45{fill:#3eab49;}.cls-46{fill:#3fab49;}.cls-47{fill:#3fac49;}.cls-48{fill:#40ac49;}.cls-49{fill:#41ac49;}.cls-50{fill:#41ad49;}.cls-51{fill:#42ad49;}.cls-52{fill:#42ae49;}.cls-53{fill:#43ae49;}.cls-54{fill:#44ae49;}.cls-55{fill:#44af49;}.cls-56{fill:#45af49;}.cls-57{fill:#47af48;}.cls-58{fill:#46af48;}.cls-59{fill:#47b048;}.cls-60{fill:#48b048;}.cls-61{fill:#49b148;}.cls-62{fill:#4ab148;}.cls-63{fill:#4ab248;}.cls-64{fill:#4bb248;}.cls-65{fill:#4cb348;}.cls-66{fill:#4eb348;}.cls-67{fill:#4eb448;}.cls-68{fill:#4fb448;}.cls-69{fill:#4fb548;}.cls-70{fill:#50b548;}.cls-71{fill:#50b748;}.cls-72{fill:#51b748;}.cls-73{fill:#52b848;}.cls-74{fill:#53b848;}.cls-75{fill:#54b948;}.cls-76{fill:#55b948;}.cls-77{fill:#56b947;}.cls-78{fill:#57b947;}.cls-79{fill:#58b947;}.cls-80{fill:#59ba47;}.cls-81{fill:#5aba47;}.cls-82{fill:#5cba47;}.cls-83{fill:#5dba47;}.cls-84{fill:#5ebb47;}.cls-85{fill:#5fbb46;}.cls-86{fill:#60bb46;}.cls-87{fill:#61bb46;}.cls-88{fill:#62bc46;}.cls-89{fill:#64bc46;}.cls-90{fill:#65bc46;}.cls-91{fill:#66bc46;}.cls-92{fill:#67bd45;}.cls-93{fill:#68bd45;}.cls-94{fill:#69bd45;}.cls-95{fill:#6bbd45;}.cls-96{fill:#6bbe45;}.cls-97{fill:#6cbe45;}.cls-98{fill:#6dbe45;}.cls-99{fill:#6ebe44;}.cls-100{fill:#6fbe44;}.cls-101{fill:#70bf44;}.cls-102{fill:#71bf44;}.cls-103{fill:#72bf44;}.cls-104{fill:#73bf44;}.cls-105{fill:#74c044;}.cls-106{fill:#75c043;}.cls-107{fill:#76c043;}.cls-108{fill:#77c043;}.cls-109{fill:#78c043;}.cls-110{fill:#78c143;}.cls-111{fill:#7ac143;}.cls-112{fill:#7bc142;}.cls-113{fill:#7cc242;}.cls-114{fill:#7dc242;}.cls-115{fill:#7ec242;}.cls-116{fill:#7fc242;}.cls-117{fill:#80c342;}.cls-118{fill:#81c341;}.cls-119{fill:#82c341;}.cls-120{fill:#83c441;}.cls-121{fill:#84c441;}.cls-122{fill:#85c441;}.cls-123{fill:#86c440;}.cls-124{fill:#87c540;}.cls-125{fill:#88c540;}.cls-126{fill:url(#linear-gradient);}</style><clipPath id="clip-path" transform="translate(30.3 63.44)"><path class="cls-1" d="M56.64,17.66C50.06,30.9,34.75,36.71,20.41,37.16c.14,3.4.4,6.81.74,10.18H10.89Q9.74,36.75,9.61,25.77C32.94,26.87,43.17,23.1,50.54,0c28.89,18.71,72,18.94,99.19,0,7.28,22.79,17.68,26.48,40.93,25.77q-.14,11-1.28,21.57H179.09c.37-3.37.63-6.78.77-10.18-14.37-.45-29.68-6.26-36.23-19.5-24.55,12.36-62.45,12.36-87,0ZM6,51.68h14.4V56H5.78a1.77,1.77,0,0,0-1.07.51,1.12,1.12,0,0,0-.34.77v.08a148.85,148.85,0,0,0,8,34.78,157.65,157.65,0,0,0,8,18.4v9A153.51,153.51,0,0,1,8.28,93.63,153.81,153.81,0,0,1,0,57.86a3.85,3.85,0,0,1,0-.54,5.5,5.5,0,0,1,1.67-3.89,6.24,6.24,0,0,1,3.69-1.7,4.54,4.54,0,0,1,.59,0Zm35.15,0H74V56H44.79L41.7,52.41Zm53.18,0h19.59V56H94.28Zm85.07,0h15.79l.62,0v0a6.33,6.33,0,0,1,3.69,1.7,5.56,5.56,0,0,1,1.64,3.89h0a4.87,4.87,0,0,1-.06.54,152.81,152.81,0,0,1-8.22,35.77,151.32,151.32,0,0,1-13,27.32v-5.84h0a4.21,4.21,0,0,0-.49-2,155,155,0,0,0,9.36-20.95,148.85,148.85,0,0,0,8-34.78v-.08h0a1.08,1.08,0,0,0-.37-.77,1.69,1.69,0,0,0-1.07-.51h-16Zm-65.48,71.17c-4.45-.19-8.87-.28-13.33-.28-2.06,0-4.16,0-6.26.06v-4.34c2.1-.06,4.2-.06,6.26-.06,4.46,0,8.88.09,13.33.26Zm-39,.71c-10.94.8-22.19,2.13-34.18,4v-4.39c10.63-1.62,20.64-2.84,30.39-3.66,1.24,1.36,2.49,2.69,3.79,4.08Zm.66,24A136.77,136.77,0,0,0,98.9,161.66a2.14,2.14,0,0,0,2.41,0,137.68,137.68,0,0,0,23.53-14.2c5.1.37,10.26.82,15.53,1.41a148.5,148.5,0,0,1-39,24.61,2.33,2.33,0,0,1-2.39.08A149.33,149.33,0,0,1,60,149c5.27-.6,10.43-1.08,15.51-1.45Z"/></clipPath><linearGradient id="linear-gradient" x1="100.13" y1="130.34" x2="100.13" y2="49.41" gradientUnits="userSpaceOnUse"><stop offset="0" stop-color="#fff"/><stop offset="0.15" stop-color="#fbfbfb"/><stop offset="0.31" stop-color="#eee"/><stop offset="0.48" stop-color="#d9d9d9"/><stop offset="0.64" stop-color="#bbb"/><stop offset="0.81" stop-color="#959595"/><stop offset="0.98" stop-color="#676767"/><stop offset="1" stop-color="#616161"/></linearGradient></defs><g id="Layer_2" data-name="Layer 2"><g id="Capa_1" data-name="Capa 1"><path class="cls-2" d="M54.77,133.34,45,134.56l1.16,9.24,9.73-1.19-.43-3.26-5.07.62-.31-2.49,8.13-1,.63,5a4.08,4.08,0,0,1-.37,2.83,3.63,3.63,0,0,1-2.53,1l-9.24,1.13a3.62,3.62,0,0,1-2.72-.39,4.14,4.14,0,0,1-1-2.64l-1-7.71a4.09,4.09,0,0,1,.34-2.81,3.69,3.69,0,0,1,2.55-1.05l9.24-1.13a3.67,3.67,0,0,1,2.69.37,3.64,3.64,0,0,1,1,2.52l.06.34-3,1Zm101.62,1.11-9.73-1.19-1.13,9.24,9.72,1.19.4-3.26-5.07-.63.31-2.49,8.11,1-.63,5a3.88,3.88,0,0,1-1,2.66,3.71,3.71,0,0,1-2.72.4l-9.24-1.13a3.64,3.64,0,0,1-2.52-1.05,4.17,4.17,0,0,1-.37-2.81l1-7.71a3.84,3.84,0,0,1,1-2.64,3.62,3.62,0,0,1,2.72-.39l9.22,1.1a2.75,2.75,0,0,1,2.92,3.74l0,.32-3.12.22ZM119.71,143l1.05-14.69,2.12.17,8.87,9.33c.29.28.57.59.8.85s.42.57.62.85v-1.76c0-.34,0-.62.06-.79l.54-7.71,2.8.2-1,14.68L133.4,144l-9.24-9.75c-.2-.26-.4-.48-.57-.68s-.31-.4-.45-.6v1.28a9.79,9.79,0,0,1-.06,1.05l-.54,7.93Zm-10-.29.4-14.71,3.11.09-.39,14.71Zm-24.21.12-.28-14.72,2.52-.05,6.52,8.79,6.07-9,2.49,0,.28,14.71-2.92.06-.14-9.1a5.07,5.07,0,0,1,0-.68,7.7,7.7,0,0,0,.06-.91,5.67,5.67,0,0,1-.43,1,4.37,4.37,0,0,1-.31.59l-4.93,7.46h-.62l-5.22-7.29a8.42,8.42,0,0,1-.51-.76c-.11-.26-.23-.48-.34-.71,0,.31.06.57.09.82s0,.48,0,.74l.17,9.07ZM68.4,138.22l5.87-.51L70.87,132Zm-5.53,6.35,6.38-15.31,3-.26,8.92,14-3.51.28-1.87-3.06-8.53.71L66,144.31Z" transform="translate(30.3 63.44)"/><g class="cls-3"><rect class="cls-4" x="-43.75" y="-5.3" width="190.63" height="27.88" transform="translate(36.87 98.71) rotate(-40.13)"/><polygon class="cls-4" points="163.56 21.09 164.13 21.77 18.34 144.62 17.77 143.94 163.56 21.09"/><polygon class="cls-5" points="163.93 21.54 164.49 22.22 18.71 145.08 18.14 144.4 163.93 21.54"/><polygon class="cls-6" points="164.3 22 164.86 22.68 19.11 145.53 18.54 144.85 164.3 22"/><polygon class="cls-7" points="164.69 22.45 165.26 23.13 19.47 145.98 18.91 145.3 164.69 22.45"/><polygon class="cls-8" points="165.06 22.9 165.63 23.56 19.84 146.41 19.28 145.76 165.06 22.9"/><polygon class="cls-8" points="165.43 23.33 166 24.01 20.24 146.86 19.67 146.18 165.43 23.33"/><polygon class="cls-9" points="165.8 23.78 166.37 24.46 20.61 147.32 20.04 146.64 165.8 23.78"/><polygon class="cls-10" points="166.19 24.24 166.76 24.92 20.98 147.77 20.41 147.09 166.19 24.24"/><polygon class="cls-10" points="166.56 24.69 167.13 25.37 21.37 148.22 20.81 147.54 166.56 24.69"/><polygon class="cls-11" points="166.93 25.14 167.5 25.8 21.74 148.65 21.18 148 166.93 25.14"/><polygon class="cls-12" points="167.33 25.6 167.9 26.25 22.11 149.1 21.54 148.42 167.33 25.6"/><polygon class="cls-13" points="167.7 26.02 168.26 26.7 22.51 149.56 21.94 148.88 167.7 26.02"/><polygon class="cls-14" points="168.07 26.48 168.63 27.16 22.88 150.01 22.31 149.33 168.07 26.48"/><polygon class="cls-14" points="168.46 26.93 169.03 27.61 23.24 150.46 22.68 149.78 168.46 26.93"/><polygon class="cls-15" points="168.83 27.38 169.4 28.04 23.64 150.89 23.07 150.24 168.83 27.38"/><polygon class="cls-16" points="169.2 27.84 169.77 28.49 24.01 151.34 23.44 150.69 169.2 27.84"/><polygon class="cls-16" points="169.6 28.26 170.16 28.94 24.38 151.79 23.81 151.12 169.6 28.26"/><polygon class="cls-17" points="169.97 28.71 170.53 29.39 24.77 152.25 24.21 151.57 169.97 28.71"/><polygon class="cls-18" points="170.33 29.17 170.9 29.85 25.14 152.7 24.58 152.02 170.33 29.17"/><polygon class="cls-19" points="170.73 29.62 171.3 30.3 25.51 153.13 24.95 152.48 170.73 29.62"/><polygon class="cls-19" points="171.1 30.08 171.67 30.73 25.91 153.58 25.34 152.93 171.1 30.08"/><polygon class="cls-20" points="171.47 30.5 172.03 31.18 26.28 154.03 25.71 153.35 171.47 30.5"/><polygon class="cls-21" points="171.87 30.95 172.43 31.64 26.65 154.49 26.08 153.81 171.87 30.95"/><polygon class="cls-21" points="172.23 31.41 172.8 32.09 27.01 154.94 26.45 154.26 172.23 31.41"/><polygon class="cls-22" points="172.6 31.86 173.17 32.54 27.41 155.4 26.84 154.72 172.6 31.86"/><polygon class="cls-23" points="173 32.31 173.56 32.97 27.78 155.82 27.21 155.17 173 32.31"/><polygon class="cls-23" points="173.37 32.74 173.93 33.42 28.15 156.27 27.58 155.59 173.37 32.74"/><polygon class="cls-24" points="173.74 33.19 174.3 33.87 28.55 156.73 27.98 156.05 173.74 33.19"/><polygon class="cls-25" points="174.13 33.65 174.7 34.33 28.91 157.18 28.35 156.5 174.13 33.65"/><polygon class="cls-25" points="174.5 34.1 175.07 34.78 29.28 157.63 28.71 156.95 174.5 34.1"/><polygon class="cls-26" points="174.87 34.55 175.44 35.21 29.68 158.06 29.11 157.41 174.87 34.55"/><polygon class="cls-26" points="175.27 35.01 175.83 35.66 30.05 158.51 29.48 157.83 175.27 35.01"/><polygon class="cls-27" points="175.63 35.43 176.2 36.11 30.42 158.97 29.85 158.29 175.63 35.43"/><polygon class="cls-28" points="176 35.89 176.57 36.57 30.81 159.42 30.25 158.74 176 35.89"/><polygon class="cls-28" points="176.4 36.34 176.97 37.02 31.18 159.87 30.61 159.19 176.4 36.34"/><polygon class="cls-29" points="176.77 36.79 177.34 37.45 31.55 160.3 30.98 159.65 176.77 36.79"/><polygon class="cls-29" points="177.14 37.25 177.7 37.9 31.95 160.75 31.38 160.1 177.14 37.25"/><polygon class="cls-30" points="177.53 37.67 178.1 38.35 32.31 161.21 31.75 160.53 177.53 37.67"/><polygon class="cls-31" points="177.9 38.13 178.47 38.81 32.68 161.66 32.12 160.98 177.9 38.13"/><polygon class="cls-31" points="178.27 38.58 178.84 39.26 33.08 162.11 32.51 161.43 178.27 38.58"/><polygon class="cls-31" points="178.67 39.03 179.24 39.71 33.45 162.54 32.88 161.89 178.67 39.03"/><polygon class="cls-32" points="179.04 39.49 179.6 40.14 33.82 162.99 33.25 162.34 179.04 39.49"/><polygon class="cls-32" points="179.41 39.91 179.97 40.59 34.21 163.45 33.65 162.76 179.41 39.91"/><polygon class="cls-33" points="179.77 40.37 180.34 41.05 34.58 163.9 34.02 163.22 179.77 40.37"/><polygon class="cls-34" points="180.17 40.82 180.74 41.5 34.95 164.35 34.38 163.67 180.17 40.82"/><polygon class="cls-34" points="180.54 41.27 181.11 41.95 35.35 164.81 34.78 164.13 180.54 41.27"/><polygon class="cls-35" points="180.91 41.73 181.47 42.38 35.72 165.23 35.15 164.58 180.91 41.73"/><polygon class="cls-36" points="181.3 42.15 181.87 42.83 36.09 165.69 35.52 165 181.3 42.15"/><polygon class="cls-36" points="181.67 42.6 182.24 43.28 36.48 166.14 35.91 165.46 181.67 42.6"/><polygon class="cls-37" points="182.04 43.06 182.61 43.74 36.85 166.59 36.28 165.91 182.04 43.06"/><polygon class="cls-38" points="182.44 43.51 183 44.19 37.22 167.05 36.65 166.37 182.44 43.51"/><polygon class="cls-39" points="182.81 43.97 183.37 44.62 37.62 167.47 37.05 166.82 182.81 43.97"/><polygon class="cls-39" points="183.18 44.42 183.74 45.07 37.98 167.92 37.42 167.24 183.18 44.42"/><polygon class="cls-40" points="183.57 44.84 184.14 45.52 38.35 168.38 37.79 167.7 183.57 44.84"/><polygon class="cls-41" points="183.94 45.3 184.51 45.98 38.75 168.83 38.18 168.15 183.94 45.3"/><polygon class="cls-42" points="184.31 45.75 184.88 46.43 39.12 169.28 38.55 168.6 184.31 45.75"/><polygon class="cls-42" points="184.71 46.2 185.27 46.86 39.49 169.71 38.92 169.06 184.71 46.2"/><polygon class="cls-43" points="185.07 46.66 185.64 47.31 39.88 170.16 39.32 169.51 185.07 46.66"/><polygon class="cls-44" points="185.44 47.08 186.01 47.76 40.25 170.62 39.69 169.94 185.44 47.08"/><polygon class="cls-45" points="185.84 47.54 186.41 48.22 40.62 171.07 40.05 170.39 185.84 47.54"/><polygon class="cls-45" points="186.21 47.99 186.78 48.67 40.99 171.52 40.42 170.84 186.21 47.99"/><polygon class="cls-46" points="186.58 48.44 187.14 49.12 41.39 171.95 40.82 171.3 186.58 48.44"/><polygon class="cls-46" points="186.97 48.9 187.54 49.55 41.75 172.4 41.19 171.75 186.97 48.9"/><polygon class="cls-47" points="187.34 49.32 187.91 50 42.12 172.86 41.56 172.18 187.34 49.32"/><polygon class="cls-48" points="187.71 49.78 188.28 50.46 42.52 173.31 41.95 172.63 187.71 49.78"/><polygon class="cls-48" points="188.11 50.23 188.67 50.91 42.89 173.76 42.32 173.08 188.11 50.23"/><polygon class="cls-48" points="188.48 50.68 189.04 51.36 43.26 174.22 42.69 173.54 188.48 50.68"/><polygon class="cls-49" points="188.84 51.14 189.41 51.79 43.65 174.64 43.09 173.99 188.84 51.14"/><polygon class="cls-50" points="189.24 51.56 189.81 52.24 44.02 175.1 43.45 174.42 189.24 51.56"/><polygon class="cls-50" points="189.61 52.02 190.18 52.7 44.39 175.55 43.82 174.87 189.61 52.02"/><polygon class="cls-51" points="189.98 52.47 190.54 53.15 44.79 176 44.22 175.32 189.98 52.47"/><polygon class="cls-51" points="190.38 52.92 190.94 53.6 45.16 176.46 44.59 175.78 190.38 52.92"/><polygon class="cls-52" points="190.74 53.38 191.31 54.03 45.52 176.88 44.96 176.23 190.74 53.38"/><polygon class="cls-53" points="191.11 53.83 191.68 54.48 45.92 177.34 45.35 176.66 191.11 53.83"/><polygon class="cls-53" points="191.51 54.26 192.08 54.94 46.29 177.79 45.72 177.11 191.51 54.26"/><polygon class="cls-54" points="191.88 54.71 192.44 55.39 46.66 178.24 46.09 177.56 191.88 54.71"/><polygon class="cls-55" points="192.25 55.16 192.81 55.84 47.05 178.7 46.49 178.02 192.25 55.16"/><polygon class="cls-55" points="192.64 55.62 193.18 56.3 47.42 179.12 46.86 178.47 192.64 55.62"/><polygon class="cls-56" points="193.01 56.07 193.58 56.72 47.79 179.57 47.23 178.92 193.01 56.07"/><polygon class="cls-56" points="193.38 56.49 193.95 57.17 48.19 180.03 47.62 179.35 193.38 56.49"/><polygon class="cls-56" points="193.75 56.95 194.31 57.63 48.56 180.48 47.99 179.8 193.75 56.95"/><polygon class="cls-57" points="194.15 57.4 194.71 58.08 48.93 180.94 48.36 180.25 194.15 57.4"/><polygon class="cls-57" points="194.51 57.85 195.08 58.53 49.32 181.36 48.76 180.71 194.51 57.85"/><polygon class="cls-58" points="194.88 58.31 195.45 58.96 49.69 181.81 49.12 181.16 194.88 58.31"/><polygon class="cls-57" points="195.28 58.73 195.85 59.41 50.06 182.27 49.49 181.59 195.28 58.73"/><polygon class="cls-59" points="195.65 59.19 196.21 59.87 50.46 182.72 49.89 182.04 195.65 59.19"/><polygon class="cls-59" points="196.02 59.64 196.58 60.32 50.83 183.18 50.26 182.49 196.02 59.64"/><polygon class="cls-60" points="196.41 60.09 196.98 60.77 51.19 183.63 50.63 182.95 196.41 60.09"/><polygon class="cls-60" points="196.78 60.55 197.35 61.2 51.59 184.05 51.02 183.4 196.78 60.55"/><polygon class="cls-60" points="197.15 61 197.72 61.65 51.96 184.51 51.39 183.83 197.15 61"/><polygon class="cls-61" points="197.55 61.43 198.11 62.11 52.33 184.96 51.76 184.28 197.55 61.43"/><polygon class="cls-61" points="197.91 61.88 198.48 62.56 52.72 185.41 52.16 184.73 197.91 61.88"/><polygon class="cls-61" points="198.28 62.33 198.85 63.01 53.09 185.87 52.53 185.19 198.28 62.33"/><polygon class="cls-62" points="198.68 62.79 199.25 63.44 53.46 186.29 52.89 185.64 198.68 62.79"/><polygon class="cls-63" points="199.05 63.24 199.62 63.89 53.83 186.75 53.29 186.07 199.05 63.24"/><polygon class="cls-64" points="199.42 63.67 199.98 64.35 54.23 187.2 53.66 186.52 199.42 63.67"/><polygon class="cls-64" points="199.81 64.12 200.38 64.8 54.59 187.65 54.03 186.97 199.81 64.12"/><polygon class="cls-64" points="200.18 64.57 200.75 65.25 54.96 188.11 54.4 187.43 200.18 64.57"/><polygon class="cls-65" points="200.55 65.03 201.12 65.71 55.36 188.53 54.79 187.88 200.55 65.03"/><polygon class="cls-65" points="200.95 65.48 201.51 66.13 55.73 188.99 55.16 188.33 200.95 65.48"/><polygon class="cls-65" points="201.32 65.91 201.88 66.59 56.1 189.44 55.53 188.76 201.32 65.91"/><polygon class="cls-66" points="201.69 66.36 202.25 67.04 56.49 189.89 55.93 189.21 201.69 66.36"/><polygon class="cls-66" points="202.08 66.81 202.65 67.49 56.86 190.35 56.3 189.67 202.08 66.81"/><polygon class="cls-67" points="202.45 67.27 203.02 67.95 57.23 190.8 56.66 190.12 202.45 67.27"/><polygon class="cls-68" points="202.82 67.72 203.39 68.37 57.63 191.22 57.06 190.57 202.82 67.72"/><polygon class="cls-68" points="203.22 68.14 203.78 68.83 58 191.68 57.43 191 203.22 68.14"/><polygon class="cls-68" points="203.58 68.6 204.15 69.28 58.37 192.13 57.8 191.45 203.58 68.6"/><polygon class="cls-69" points="203.95 69.05 204.52 69.73 58.76 192.59 58.2 191.91 203.95 69.05"/><polygon class="cls-69" points="204.35 69.51 204.92 70.19 59.13 193.04 58.56 192.36 204.35 69.51"/><polygon class="cls-69" points="204.72 69.96 205.28 70.61 59.5 193.47 58.93 192.81 204.72 69.96"/><polygon class="cls-70" points="205.09 70.41 205.65 71.06 59.9 193.92 59.33 193.24 205.09 70.41"/><polygon class="cls-70" points="205.48 70.84 206.05 71.52 60.27 194.37 59.7 193.69 205.48 70.84"/><polygon class="cls-71" points="205.85 71.29 206.42 71.97 60.63 194.82 60.07 194.15 205.85 71.29"/><polygon class="cls-72" points="206.22 71.75 206.79 72.42 61.03 195.28 60.46 194.6 206.22 71.75"/><polygon class="cls-72" points="206.59 72.2 207.16 72.85 61.4 195.7 60.83 195.05 206.59 72.2"/><polygon class="cls-72" points="206.99 72.65 207.55 73.3 61.77 196.16 61.2 195.5 206.99 72.65"/><polygon class="cls-73" points="207.35 73.08 207.92 73.76 62.16 196.61 61.6 195.93 207.35 73.08"/><polygon class="cls-73" points="207.72 73.53 208.29 74.21 62.53 197.06 61.97 196.38 207.72 73.53"/><polygon class="cls-74" points="208.12 73.98 208.69 74.67 62.9 197.52 62.33 196.84 208.12 73.98"/><polygon class="cls-74" points="208.49 74.44 209.06 75.12 63.3 197.94 62.73 197.29 208.49 74.44"/><polygon class="cls-74" points="208.86 74.89 209.42 75.54 63.67 198.4 63.1 197.75 208.86 74.89"/><polygon class="cls-75" points="209.25 75.32 209.82 76 64.03 198.85 63.47 198.17 209.25 75.32"/><polygon class="cls-75" points="209.62 75.77 210.19 76.45 64.43 199.3 63.87 198.62 209.62 75.77"/><polygon class="cls-75" points="209.99 76.22 210.56 76.9 64.8 199.76 64.23 199.08 209.99 76.22"/><polygon class="cls-76" points="210.39 76.68 210.95 77.36 65.17 200.21 64.6 199.53 210.39 76.68"/><polygon class="cls-76" points="210.76 77.13 211.32 77.78 65.56 200.64 65 199.98 210.76 77.13"/><polygon class="cls-76" points="211.12 77.56 211.69 78.24 65.93 201.09 65.37 200.41 211.12 77.56"/><polygon class="cls-77" points="211.52 78.01 212.09 78.69 66.3 201.54 65.73 200.86 211.52 78.01"/><polygon class="cls-77" points="211.89 78.46 212.46 79.14 66.7 202 66.13 201.32 211.89 78.46"/><polygon class="cls-78" points="212.26 78.92 212.82 79.6 67.07 202.45 66.5 201.77 212.26 78.92"/><polygon class="cls-79" points="212.66 79.37 213.22 80.02 67.44 202.88 66.87 202.22 212.66 79.37"/><polygon class="cls-79" points="213.02 79.82 213.59 80.48 67.81 203.33 67.24 202.65 213.02 79.82"/><polygon class="cls-79" points="213.39 80.25 213.96 80.93 68.2 203.78 67.64 203.1 213.39 80.25"/><polygon class="cls-80" points="213.79 80.7 214.36 81.38 68.57 204.24 68 203.56 213.79 80.7"/><polygon class="cls-80" points="214.16 81.16 214.72 81.84 68.94 204.69 68.37 204.01 214.16 81.16"/><polygon class="cls-80" points="214.53 81.61 215.09 82.26 69.33 205.12 68.77 204.46 214.53 81.61"/><polygon class="cls-81" points="214.92 82.06 215.49 82.72 69.7 205.57 69.14 204.92 214.92 82.06"/><polygon class="cls-81" points="215.29 82.49 215.86 83.17 70.07 206.02 69.51 205.34 215.29 82.49"/><polygon class="cls-82" points="215.66 82.94 216.23 83.62 70.47 206.48 69.9 205.79 215.66 82.94"/><polygon class="cls-82" points="216.06 83.39 216.62 84.08 70.84 206.93 70.27 206.25 216.06 83.39"/><polygon class="cls-82" points="216.43 83.85 216.99 84.53 71.21 207.35 70.64 206.7 216.43 83.85"/><polygon class="cls-83" points="216.79 84.3 217.36 84.95 71.6 207.81 71.04 207.16 216.79 84.3"/><polygon class="cls-84" points="217.19 84.73 217.76 85.41 71.97 208.26 71.41 207.58 217.19 84.73"/><polygon class="cls-84" points="217.56 85.18 218.13 85.86 72.34 208.72 71.77 208.03 217.56 85.18"/><polygon class="cls-85" points="217.93 85.64 218.49 86.31 72.74 209.17 72.17 208.49 217.93 85.64"/><polygon class="cls-85" points="218.32 86.09 218.89 86.77 73.11 209.62 72.54 208.94 218.32 86.09"/><polygon class="cls-85" points="218.69 86.54 219.26 87.19 73.47 210.05 72.91 209.4 218.69 86.54"/><polygon class="cls-86" points="219.06 86.97 219.63 87.65 73.87 210.5 73.3 209.82 219.06 86.97"/><polygon class="cls-86" points="219.46 87.42 220.03 88.1 74.24 210.95 73.67 210.27 219.46 87.42"/><polygon class="cls-86" points="219.83 87.87 220.39 88.55 74.61 211.41 74.04 210.73 219.83 87.87"/><polygon class="cls-87" points="220.19 88.33 220.76 89.01 75 211.86 74.44 211.18 220.19 88.33"/><polygon class="cls-87" points="220.56 88.78 221.13 89.43 75.37 212.29 74.81 211.63 220.56 88.78"/><polygon class="cls-87" points="220.96 89.23 221.53 89.89 75.74 212.74 75.17 212.06 220.96 89.23"/><polygon class="cls-88" points="221.33 89.66 221.9 90.34 76.14 213.19 75.57 212.51 221.33 89.66"/><polygon class="cls-88" points="221.7 90.11 222.26 90.79 76.51 213.65 75.94 212.97 221.7 90.11"/><polygon class="cls-88" points="222.09 90.57 222.66 91.25 76.88 214.1 76.31 213.42 222.09 90.57"/><polygon class="cls-89" points="222.46 91.02 223.03 91.67 77.27 214.53 76.71 213.87 222.46 91.02"/><polygon class="cls-89" points="222.83 91.47 223.4 92.13 77.64 214.98 77.07 214.33 222.83 91.47"/><polygon class="cls-89" points="223.23 91.9 223.79 92.58 78.01 215.43 77.44 214.75 223.23 91.9"/><polygon class="cls-90" points="223.6 92.35 224.16 93.03 78.41 215.89 77.84 215.21 223.6 92.35"/><polygon class="cls-90" points="223.97 92.81 224.53 93.49 78.78 216.34 78.21 215.66 223.97 92.81"/><polygon class="cls-91" points="224.36 93.26 224.93 93.94 79.14 216.76 78.58 216.11 224.36 93.26"/><polygon class="cls-91" points="224.73 93.71 225.3 94.36 79.54 217.22 78.97 216.57 224.73 93.71"/><polygon class="cls-91" points="225.1 94.14 225.67 94.82 79.91 217.67 79.34 216.99 225.1 94.14"/><polygon class="cls-92" points="225.5 94.59 226.06 95.27 80.28 218.13 79.71 217.45 225.5 94.59"/><polygon class="cls-92" points="225.87 95.05 226.43 95.73 80.67 218.58 80.11 217.9 225.87 95.05"/><polygon class="cls-92" points="226.23 95.5 226.8 96.18 81.04 219.03 80.48 218.35 226.23 95.5"/><polygon class="cls-93" points="226.63 95.95 227.2 96.61 81.41 219.46 80.84 218.81 226.63 95.95"/><polygon class="cls-93" points="227 96.41 227.56 97.06 81.78 219.91 81.21 219.23 227 96.41"/><polygon class="cls-93" points="227.37 96.83 227.93 97.51 82.18 220.37 81.61 219.69 227.37 96.83"/><polygon class="cls-94" points="227.76 97.28 228.33 97.97 82.55 220.82 81.98 220.14 227.76 97.28"/><polygon class="cls-94" points="228.13 97.74 228.7 98.42 82.91 221.27 82.35 220.59 228.13 97.74"/><polygon class="cls-94" points="228.5 98.19 229.07 98.84 83.31 221.7 82.74 221.05 228.5 98.19"/><polygon class="cls-95" points="228.9 98.65 229.47 99.3 83.68 222.15 83.11 221.47 228.9 98.65"/><polygon class="cls-95" points="229.27 99.07 229.83 99.75 84.05 222.6 83.48 221.92 229.27 99.07"/><polygon class="cls-95" points="229.63 99.52 230.2 100.2 84.44 223.06 83.88 222.38 229.63 99.52"/><polygon class="cls-96" points="230.03 99.98 230.6 100.66 84.81 223.51 84.25 222.83 230.03 99.98"/><polygon class="cls-96" points="230.4 100.43 230.97 101.11 85.18 223.94 84.61 223.28 230.4 100.43"/><polygon class="cls-97" points="230.77 100.89 231.34 101.54 85.58 224.39 85.01 223.74 230.77 100.89"/><polygon class="cls-97" points="231.16 101.31 231.73 101.99 85.95 224.84 85.38 224.16 231.16 101.31"/><polygon class="cls-97" points="231.53 101.76 232.1 102.44 86.31 225.3 85.75 224.62 231.53 101.76"/><polygon class="cls-98" points="231.9 102.22 232.47 102.9 86.71 225.75 86.14 225.07 231.9 102.22"/><polygon class="cls-98" points="232.3 102.67 232.87 103.35 87.08 226.18 86.51 225.52 232.3 102.67"/><polygon class="cls-98" points="232.67 103.12 233.24 103.78 87.45 226.63 86.88 225.98 232.67 103.12"/><polygon class="cls-99" points="233.04 103.55 233.6 104.23 87.85 227.08 87.28 226.4 233.04 103.55"/><polygon class="cls-99" points="233.43 104 233.97 104.68 88.21 227.54 87.65 226.86 233.43 104"/><polygon class="cls-100" points="233.8 104.46 234.37 105.14 88.58 227.99 88.02 227.31 233.8 104.46"/><polygon class="cls-101" points="234.17 104.91 234.74 105.59 88.98 228.44 88.41 227.76 234.17 104.91"/><polygon class="cls-101" points="234.54 105.36 235.11 106.02 89.35 228.87 88.78 228.22 234.54 105.36"/><polygon class="cls-101" points="234.94 105.82 235.5 106.47 89.72 229.32 89.15 228.64 234.94 105.82"/><polygon class="cls-102" points="235.3 106.24 235.87 106.92 90.11 229.78 89.55 229.1 235.3 106.24"/><polygon class="cls-102" points="235.67 106.7 236.24 107.38 90.48 230.23 89.92 229.55 235.67 106.7"/><polygon class="cls-102" points="236.07 107.15 236.64 107.83 90.85 230.68 90.28 230 236.07 107.15"/><polygon class="cls-103" points="236.44 107.6 237 108.25 91.25 231.11 90.68 230.46 236.44 107.6"/><polygon class="cls-103" points="236.81 108.06 237.37 108.71 91.62 231.56 91.05 230.88 236.81 108.06"/><polygon class="cls-103" points="237.2 108.48 237.77 109.16 91.98 232.02 91.42 231.34 237.2 108.48"/><polygon class="cls-104" points="237.57 108.94 238.14 109.62 92.38 232.47 91.81 231.79 237.57 108.94"/><polygon class="cls-104" points="237.94 109.39 238.51 110.07 92.75 232.92 92.18 232.24 237.94 109.39"/><polygon class="cls-104" points="238.34 109.84 238.9 110.52 93.12 233.35 92.55 232.7 238.34 109.84"/><polygon class="cls-105" points="238.71 110.3 239.27 110.95 93.52 233.8 92.95 233.15 238.71 110.3"/><polygon class="cls-106" points="239.07 110.72 239.64 111.4 93.88 234.25 93.32 233.57 239.07 110.72"/><polygon class="cls-107" points="239.47 111.17 240.04 111.86 94.25 234.71 93.69 234.03 239.47 111.17"/><polygon class="cls-107" points="239.84 111.63 240.41 112.31 94.62 235.16 94.08 234.48 239.84 111.63"/><polygon class="cls-107" points="240.21 112.08 240.78 112.76 95.02 235.59 94.45 234.94 240.21 112.08"/><polygon class="cls-108" points="240.6 112.53 241.17 113.19 95.39 236.04 94.82 235.39 240.6 112.53"/><polygon class="cls-108" points="240.97 112.96 241.54 113.64 95.75 236.49 95.19 235.81 240.97 112.96"/><polygon class="cls-108" points="241.34 113.41 241.91 114.09 96.15 236.95 95.58 236.27 241.34 113.41"/><polygon class="cls-108" points="241.74 113.87 242.31 114.55 96.52 237.4 95.95 236.72 241.74 113.87"/><polygon class="cls-109" points="242.11 114.32 242.67 115 96.89 237.85 96.32 237.18 242.11 114.32"/><polygon class="cls-109" points="242.48 114.78 243.04 115.43 97.28 238.28 96.72 237.63 242.48 114.78"/><polygon class="cls-110" points="242.87 115.23 243.44 115.88 97.65 238.73 97.09 238.05 242.87 115.23"/><polygon class="cls-110" points="243.24 115.65 243.81 116.33 98.02 239.19 97.45 238.51 243.24 115.65"/><polygon class="cls-110" points="243.61 116.11 244.18 116.79 98.42 239.64 97.85 238.96 243.61 116.11"/><polygon class="cls-111" points="244.01 116.56 244.57 117.24 98.79 240.09 98.22 239.41 244.01 116.56"/><polygon class="cls-111" points="244.38 117.01 244.94 117.67 99.16 240.52 98.59 239.87 244.38 117.01"/><polygon class="cls-111" points="244.74 117.47 245.31 118.12 99.55 240.97 98.99 240.32 244.74 117.47"/><polygon class="cls-112" points="245.14 117.89 245.71 118.57 99.92 241.43 99.35 240.75 245.14 117.89"/><polygon class="cls-112" points="245.51 118.35 246.08 119.03 100.29 241.88 99.72 241.2 245.51 118.35"/><polygon class="cls-112" points="245.88 118.8 246.44 119.48 100.69 242.33 100.12 241.65 245.88 118.8"/><polygon class="cls-113" points="246.27 119.25 246.84 119.93 101.06 242.76 100.49 242.11 246.27 119.25"/><polygon class="cls-113" points="246.64 119.71 247.21 120.36 101.42 243.21 100.86 242.56 246.64 119.71"/><polygon class="cls-113" points="247.01 120.13 247.58 120.81 101.82 243.67 101.25 242.99 247.01 120.13"/><polygon class="cls-114" points="247.38 120.59 247.95 121.27 102.19 244.12 101.62 243.44 247.38 120.59"/><polygon class="cls-114" points="247.78 121.04 248.34 121.72 102.56 244.57 101.99 243.89 247.78 121.04"/><polygon class="cls-114" points="248.15 121.49 248.71 122.17 102.95 245.03 102.39 244.35 248.15 121.49"/><polygon class="cls-114" points="248.51 121.95 249.08 122.6 103.32 245.45 102.76 244.8 248.51 121.95"/><polygon class="cls-115" points="248.91 122.37 249.48 123.05 103.69 245.91 103.12 245.22 248.91 122.37"/><polygon class="cls-116" points="249.28 122.83 249.85 123.5 104.09 246.36 103.52 245.68 249.28 122.83"/><polygon class="cls-116" points="249.65 123.28 250.21 123.96 104.46 246.81 103.89 246.13 249.65 123.28"/><polygon class="cls-116" points="250.04 123.73 250.61 124.41 104.83 247.27 104.26 246.59 250.04 123.73"/><polygon class="cls-117" points="250.41 124.19 250.98 124.84 105.22 247.69 104.66 247.04 250.41 124.19"/><polygon class="cls-117" points="250.78 124.64 251.35 125.29 105.59 248.15 105.02 247.47 250.78 124.64"/><polygon class="cls-117" points="251.18 125.06 251.75 125.75 105.96 248.6 105.39 247.92 251.18 125.06"/><polygon class="cls-118" points="251.55 125.52 252.11 126.2 106.36 249.05 105.79 248.37 251.55 125.52"/><polygon class="cls-118" points="251.91 125.97 252.48 126.65 106.72 249.5 106.16 248.82 251.91 125.97"/><polygon class="cls-118" points="252.31 126.42 252.88 127.08 107.09 249.93 106.53 249.28 252.31 126.42"/><polygon class="cls-119" points="252.68 126.88 253.25 127.53 107.49 250.38 106.92 249.73 252.68 126.88"/><polygon class="cls-119" points="253.05 127.3 253.62 127.98 107.86 250.84 107.29 250.16 253.05 127.3"/><polygon class="cls-119" points="253.45 127.76 254.01 128.44 108.23 251.29 107.66 250.61 253.45 127.76"/><polygon class="cls-120" points="253.81 128.21 254.38 128.89 108.59 251.75 108.03 251.06 253.81 128.21"/><polygon class="cls-120" points="254.18 128.66 254.75 129.34 108.99 252.17 108.42 251.52 254.18 128.66"/><polygon class="cls-120" points="254.58 129.12 255.15 129.77 109.36 252.62 108.79 251.97 254.58 129.12"/><polygon class="cls-121" points="254.95 129.54 255.51 130.22 109.73 253.08 109.16 252.4 254.95 129.54"/><polygon class="cls-121" points="255.32 130 255.88 130.68 110.13 253.53 109.56 252.85 255.32 130"/><polygon class="cls-122" points="255.71 130.45 256.28 131.13 110.49 253.98 109.93 253.3 255.71 130.45"/><polygon class="cls-122" points="256.08 130.9 256.65 131.58 110.86 254.44 110.3 253.76 256.08 130.9"/><polygon class="cls-122" points="256.45 131.36 257.02 132.01 111.26 254.86 110.69 254.21 256.45 131.36"/><polygon class="cls-123" points="256.85 131.78 257.41 132.46 111.63 255.32 111.06 254.64 256.85 131.78"/><polygon class="cls-123" points="257.22 132.24 257.78 132.92 112 255.77 111.43 255.09 257.22 132.24"/><polygon class="cls-123" points="257.58 132.69 258.15 133.37 112.39 256.22 111.83 255.54 257.58 132.69"/><polygon class="cls-124" points="257.98 133.14 258.55 133.82 112.76 256.68 112.19 256 257.98 133.14"/><polygon class="cls-124" points="258.35 133.6 258.92 134.25 113.13 257.1 112.56 256.45 258.35 133.6"/><polygon class="cls-124" points="258.72 134.05 259.29 134.7 113.53 257.56 112.96 256.88 258.72 134.05"/><polygon class="cls-125" points="259.12 134.48 259.68 135.16 113.9 258.01 113.33 257.33 259.12 134.48"/><rect class="cls-125" x="62.92" y="132.2" width="190.65" height="6.08" transform="translate(-19.61 197.09) rotate(-40.08)"/></g><path class="cls-126" d="M24.72,130.34V49.41h8.79c3.26,3.88,6.52,7.74,9.78,11.53S49.78,68.4,53,72.09,59.53,79.37,62.76,83s6.52,7.14,9.81,10.69c1.3,1.41,2.49,2.75,3.51,4a40,40,0,0,1,2.78,3.89c-.2-4.2-.34-7.15-.43-8.91s-.08-3.06-.08-4V49.41H89.94v74.21c-2.94.08-5.89.2-8.81.31Q76,118.48,70.92,113c-3.37-3.63-6.77-7.31-10.17-11s-6.81-7.37-10.21-11.11-6.77-7.6-10.15-11.45c-1-1.17-1.81-2.24-2.58-3.23s-1.41-2-2-3c.14,2.47.29,4.73.37,6.92s.14,4,.14,5.64v42.74c-3.88.6-7.74,1.19-11.59,1.82Zm93.51-6.47V49.41H175v13.8c-7.31-.2-14.65-.39-21.94-.56s-14.62-.29-21.91-.37V79.06c8.5.31,17,.65,25.57,1.08V93.46c-8.53-.63-17.07-1.14-25.57-1.56v18.68c7.4.54,14.8,1.11,22.17,1.9s14.82,1.7,22.25,2.63v15.23c-9.58-1.53-19.11-3-28.69-4.08s-19.07-1.79-28.63-2.39Z" transform="translate(30.3 63.44)"/></g></g></svg>