<svg xmlns="http://www.w3.org/2000/svg" xmlns:xlink="http://www.w3.org/1999/xlink" viewBox="0 0 133.49 133.49"><defs><style>.cls-1{isolation:isolate;}.cls-2{fill:#1a540e;}.cls-18,.cls-20,.cls-22,.cls-24,.cls-3,.cls-5{mix-blend-mode:multiply;}.cls-3{fill:url(#radial-gradient);}.cls-4{fill:#593700;}.cls-5{fill:url(#radial-gradient-2);}.cls-6,.cls-7{mix-blend-mode:screen;}.cls-6{fill:url(#linear-gradient);}.cls-7{fill:url(#linear-gradient-2);}.cls-8{fill:#7bad00;}.cls-9{fill:#ff0204;}.cls-10{fill:#fff;}.cls-11{fill:url(#radial-gradient-3);}.cls-12{fill:url(#radial-gradient-4);}.cls-13{fill:url(#radial-gradient-5);}.cls-14{fill:url(#radial-gradient-6);}.cls-15{fill:url(#linear-gradient-3);}.cls-16{fill:url(#radial-gradient-7);}.cls-17{fill:url(#linear-gradient-4);}.cls-18{fill:url(#linear-gradient-5);}.cls-19{fill:url(#linear-gradient-6);}.cls-20{fill:url(#linear-gradient-7);}.cls-21{fill:url(#linear-gradient-8);}.cls-22{fill:url(#linear-gradient-9);}.cls-23{fill:url(#linear-gradient-10);}.cls-24{fill:url(#linear-gradient-11);}.cls-25{fill:url(#linear-gradient-12);}.cls-26{fill:url(#linear-gradient-13);}.cls-27{fill:url(#linear-gradient-14);}.cls-28{fill:url(#linear-gradient-15);}.cls-29{fill:url(#linear-gradient-16);}.cls-30{fill:url(#linear-gradient-17);}.cls-31{fill:url(#linear-gradient-18);}.cls-32{fill:url(#linear-gradient-19);}.cls-33{fill:url(#linear-gradient-20);}.cls-34{fill:url(#linear-gradient-21);}.cls-35{fill:url(#linear-gradient-22);}.cls-36{fill:url(#linear-gradient-23);}.cls-37{fill:url(#linear-gradient-24);}.cls-38{fill:url(#linear-gradient-25);}.cls-39{fill:url(#linear-gradient-26);}.cls-40{fill:url(#linear-gradient-27);}.cls-41{fill:url(#linear-gradient-28);}.cls-42{fill:url(#linear-gradient-29);}.cls-43{fill:url(#linear-gradient-30);}.cls-44{fill:url(#linear-gradient-31);}.cls-45{fill:url(#linear-gradient-32);}.cls-46{fill:url(#linear-gradient-33);}.cls-47{fill:url(#linear-gradient-34);}.cls-48{fill:url(#linear-gradient-35);}.cls-49{fill:url(#linear-gradient-36);}.cls-50{fill:url(#linear-gradient-37);}.cls-51{fill:url(#linear-gradient-38);}.cls-52{fill:url(#linear-gradient-39);}.cls-53{fill:url(#linear-gradient-40);}.cls-54{fill:url(#linear-gradient-41);}.cls-55{fill:url(#linear-gradient-42);}.cls-56{fill:url(#linear-gradient-43);}.cls-57{fill:url(#linear-gradient-44);}.cls-58{fill:url(#linear-gradient-45);}.cls-59{fill:url(#linear-gradient-46);}.cls-60{fill:url(#linear-gradient-47);}.cls-61{fill:#e8ac35;}.cls-62{fill:url(#linear-gradient-48);}.cls-63{fill:url(#linear-gradient-49);}.cls-64{fill:url(#linear-gradient-50);}</style><radialGradient id="radial-gradient" cx="66.74" cy="66.74" r="64.63" gradientUnits="userSpaceOnUse"><stop offset="0.58" stop-color="#fff"/><stop offset="0.6" stop-color="#fbfafa"/><stop offset="0.63" stop-color="#eeebea"/><stop offset="0.66" stop-color="#d9d3d0"/><stop offset="0.69" stop-color="#bbb0ac"/><stop offset="0.72" stop-color="#95847d"/><stop offset="0.76" stop-color="#685046"/><stop offset="0.79" stop-color="#3d1e11"/></radialGradient><radialGradient id="radial-gradient-2" cx="66.75" cy="66.74" r="32.99" gradientUnits="userSpaceOnUse"><stop offset="0" stop-color="#a12f00"/><stop offset="0.01" stop-color="#a23103"/><stop offset="0.11" stop-color="#a6401d"/><stop offset="0.2" stop-color="#a9492d"/><stop offset="0.27" stop-color="#aa4c32"/><stop offset="0.57" stop-color="#bd755b"/><stop offset="1" stop-color="#fff"/></radialGradient><linearGradient id="linear-gradient" x1="106.1" y1="105.75" x2="69.05" y2="69.12" gradientUnits="userSpaceOnUse"><stop offset="0" stop-color="#ba7b1c"/><stop offset="1"/></linearGradient><linearGradient id="linear-gradient-2" x1="54.32" y1="21.2" x2="64.43" y2="61.9" gradientUnits="userSpaceOnUse"><stop offset="0" stop-color="#fff"/><stop offset="1"/></linearGradient><radialGradient id="radial-gradient-3" cx="36.1" cy="65.75" r="4.44" gradientUnits="userSpaceOnUse"><stop offset="0" stop-color="#fff"/><stop offset="0.23" stop-color="#fff6a3"/><stop offset="0.37" stop-color="#fae475"/><stop offset="0.58" stop-color="#d4ab44"/><stop offset="0.74" stop-color="#f5d76c"/><stop offset="0.97" stop-color="#fffa6b"/></radialGradient><radialGradient id="radial-gradient-4" cx="65.15" cy="94.81" r="5.59" xlink:href="#radial-gradient-3"/><radialGradient id="radial-gradient-5" cx="94.91" cy="64.63" r="6.35" xlink:href="#radial-gradient-3"/><radialGradient id="radial-gradient-6" cx="65.58" cy="35.02" r="5.53" xlink:href="#radial-gradient-3"/><linearGradient id="linear-gradient-3" x1="60.26" y1="61.52" x2="73.17" y2="71.91" gradientUnits="userSpaceOnUse"><stop offset="0" stop-color="#a86a18"/><stop offset="0.12" stop-color="#f5ce5b"/><stop offset="0.23" stop-color="#f1d99c"/><stop offset="0.33" stop-color="#f5f7bb"/><stop offset="0.58" stop-color="#dbb054"/><stop offset="0.74" stop-color="#f3c954"/><stop offset="0.84" stop-color="#f1cf65"/><stop offset="0.96" stop-color="#a86a18"/></linearGradient><radialGradient id="radial-gradient-7" cx="64.87" cy="64.07" r="8.76" xlink:href="#radial-gradient-3"/><linearGradient id="linear-gradient-4" x1="61.65" y1="50.92" x2="75.91" y2="50.92" xlink:href="#linear-gradient-3"/><linearGradient id="linear-gradient-5" x1="70.22" y1="55.6" x2="64.89" y2="64.59" gradientUnits="userSpaceOnUse"><stop offset="0" stop-color="#fff"/><stop offset="1" stop-color="#a36d00"/></linearGradient><linearGradient id="linear-gradient-6" x1="51.03" y1="62.81" x2="51.03" y2="73.38" xlink:href="#linear-gradient-3"/><linearGradient id="linear-gradient-7" x1="57.16" y1="67.3" x2="66.28" y2="66.6" xlink:href="#linear-gradient-5"/><linearGradient id="linear-gradient-8" x1="62.21" y1="82.66" x2="73.58" y2="82.66" xlink:href="#linear-gradient-3"/><linearGradient id="linear-gradient-9" x1="68.8" y1="77.28" x2="65.85" y2="68.86" xlink:href="#linear-gradient-5"/><linearGradient id="linear-gradient-10" x1="82.54" y1="61.96" x2="82.54" y2="75.26" xlink:href="#linear-gradient-3"/><linearGradient id="linear-gradient-11" x1="77.46" y1="69.8" x2="69.6" y2="65.31" xlink:href="#linear-gradient-5"/><linearGradient id="linear-gradient-12" x1="66.53" y1="117.31" x2="66.95" y2="117.31" xlink:href="#linear-gradient-3"/><linearGradient id="linear-gradient-13" x1="66.53" y1="16.18" x2="66.95" y2="16.18" xlink:href="#linear-gradient-3"/><linearGradient id="linear-gradient-14" x1="72.51" y1="116.54" x2="78.54" y2="116.54" gradientTransform="translate(21.38 -11.34) rotate(10)" xlink:href="#linear-gradient-3"/><linearGradient id="linear-gradient-15" x1="54.95" y1="16.94" x2="60.98" y2="16.94" gradientTransform="translate(3.82 -9.81) rotate(10)" xlink:href="#linear-gradient-3"/><linearGradient id="linear-gradient-16" x1="78.31" y1="114.26" x2="89.77" y2="114.26" gradientTransform="translate(44.15 -21.85) rotate(20)" xlink:href="#linear-gradient-3"/><linearGradient id="linear-gradient-17" x1="43.72" y1="19.22" x2="55.18" y2="19.22" gradientTransform="translate(9.56 -15.75) rotate(20)" xlink:href="#linear-gradient-3"/><linearGradient id="linear-gradient-18" x1="83.75" y1="110.53" x2="100.3" y2="110.53" gradientTransform="translate(67.59 -31.2) rotate(30)" xlink:href="#linear-gradient-3"/><linearGradient id="linear-gradient-19" x1="33.19" y1="22.96" x2="49.74" y2="22.96" gradientTransform="translate(17.03 -17.66) rotate(30)" xlink:href="#linear-gradient-3"/><linearGradient id="linear-gradient-20" x1="88.68" y1="105.47" x2="109.81" y2="105.47" gradientTransform="translate(91.01 -39.12) rotate(40)" xlink:href="#linear-gradient-3"/><linearGradient id="linear-gradient-21" x1="23.68" y1="28.01" x2="44.81" y2="28.01" gradientTransform="translate(26.02 -15.46) rotate(40)" xlink:href="#linear-gradient-3"/><linearGradient id="linear-gradient-22" x1="92.94" y1="99.24" x2="118.01" y2="99.24" xlink:href="#linear-gradient-3"/><linearGradient id="linear-gradient-23" x1="15.48" y1="34.24" x2="40.55" y2="34.24" gradientTransform="translate(36.24 -9.23) rotate(50)" xlink:href="#linear-gradient-3"/><linearGradient id="linear-gradient-24" x1="96.42" y1="92.03" x2="124.65" y2="92.03" gradientTransform="translate(134.95 -49.71) rotate(60)" xlink:href="#linear-gradient-3"/><linearGradient id="linear-gradient-25" x1="8.84" y1="41.46" x2="37.08" y2="41.46" gradientTransform="translate(47.39 0.85) rotate(60)" xlink:href="#linear-gradient-3"/><linearGradient id="linear-gradient-26" x1="98.99" y1="84.04" x2="129.53" y2="84.04" xlink:href="#linear-gradient-3"/><linearGradient id="linear-gradient-27" x1="3.95" y1="49.45" x2="34.49" y2="49.45" gradientTransform="translate(59.11 14.47) rotate(70)" xlink:href="#linear-gradient-3"/><linearGradient id="linear-gradient-28" x1="100.58" y1="75.52" x2="132.51" y2="75.52" xlink:href="#linear-gradient-3"/><linearGradient id="linear-gradient-29" x1="0.98" y1="57.96" x2="32.91" y2="57.96" gradientTransform="translate(71.08 31.21) rotate(80)" xlink:href="#linear-gradient-3"/><linearGradient id="linear-gradient-30" x1="101.14" y1="66.74" x2="133.49" y2="66.74" xlink:href="#linear-gradient-3"/><linearGradient id="linear-gradient-31" x1="0" y1="66.74" x2="32.35" y2="66.74" xlink:href="#linear-gradient-3"/><linearGradient id="linear-gradient-32" x1="100.58" y1="57.96" x2="132.51" y2="57.96" xlink:href="#linear-gradient-3"/><linearGradient id="linear-gradient-33" x1="0.98" y1="75.52" x2="32.91" y2="75.52" gradientTransform="translate(13.57 -1.8) rotate(10.15)" xlink:href="#linear-gradient-3"/><linearGradient id="linear-gradient-34" x1="98.99" y1="49.45" x2="129.54" y2="49.45" gradientTransform="translate(23.68 -35.97) rotate(19.92)" xlink:href="#linear-gradient-3"/><linearGradient id="linear-gradient-35" x1="3.95" y1="84.04" x2="34.5" y2="84.04" gradientTransform="translate(29.91 -1.51) rotate(20.01)" xlink:href="#linear-gradient-3"/><linearGradient id="linear-gradient-36" x1="96.41" y1="41.46" x2="124.65" y2="41.46" xlink:href="#linear-gradient-3"/><linearGradient id="linear-gradient-37" x1="8.84" y1="92.02" x2="37.08" y2="92.02" gradientTransform="translate(49.1 0.85) rotate(30.01)" xlink:href="#linear-gradient-3"/><linearGradient id="linear-gradient-38" x1="92.94" y1="34.25" x2="118.01" y2="34.25" xlink:href="#linear-gradient-3"/><linearGradient id="linear-gradient-39" x1="15.48" y1="99.24" x2="40.55" y2="99.24" gradientTransform="matrix(0.77, 0.64, -0.64, 0.77, 70.37, 5.22)" xlink:href="#linear-gradient-3"/><linearGradient id="linear-gradient-40" x1="88.68" y1="28.01" x2="109.81" y2="28.01" gradientTransform="translate(56.88 -66.01) rotate(49.98)" xlink:href="#linear-gradient-3"/><linearGradient id="linear-gradient-41" x1="23.68" y1="105.47" x2="44.81" y2="105.47" gradientTransform="translate(93.06 11.46) rotate(50.02)" xlink:href="#linear-gradient-3"/><linearGradient id="linear-gradient-42" x1="83.75" y1="22.96" x2="100.3" y2="22.96" gradientTransform="translate(65.94 -68.23) rotate(60.03)" xlink:href="#linear-gradient-3"/><linearGradient id="linear-gradient-43" x1="33.19" y1="110.53" x2="49.74" y2="110.53" xlink:href="#linear-gradient-3"/><linearGradient id="linear-gradient-44" x1="78.31" y1="19.22" x2="89.77" y2="19.22" gradientTransform="translate(73.43 -66.33) rotate(70.04)" xlink:href="#linear-gradient-3"/><linearGradient id="linear-gradient-45" x1="43.72" y1="114.26" x2="55.18" y2="114.26" gradientTransform="translate(139.87 28.68) rotate(69.98)" xlink:href="#linear-gradient-3"/><linearGradient id="linear-gradient-46" x1="72.51" y1="16.94" x2="78.54" y2="16.94" gradientTransform="translate(78.97 -60.39) rotate(79.91)" xlink:href="#linear-gradient-3"/><linearGradient id="linear-gradient-47" x1="54.95" y1="116.54" x2="60.98" y2="116.54" xlink:href="#linear-gradient-3"/><linearGradient id="linear-gradient-48" x1="40.89" y1="39.39" x2="89.45" y2="90.76" xlink:href="#linear-gradient-3"/><linearGradient id="linear-gradient-49" x1="33.93" y1="23.33" x2="98.21" y2="108.38" xlink:href="#linear-gradient-3"/><linearGradient id="linear-gradient-50" x1="22.43" y1="15.8" x2="112.53" y2="119.38" xlink:href="#linear-gradient-3"/></defs><g class="cls-1"><g id="Layer_2" data-name="Layer 2"><g id="casino"><path class="cls-2" d="M66.74,131.38a64.64,64.64,0,1,1,64.64-64.64A64.71,64.71,0,0,1,66.74,131.38Z"/><path class="cls-3" d="M66.74,131.38a64.64,64.64,0,1,1,64.64-64.64A64.71,64.71,0,0,1,66.74,131.38Z"/><path class="cls-4" d="M66.74,99.73a33,33,0,1,1,33-33A33,33,0,0,1,66.74,99.73Z"/><path class="cls-5" d="M66.74,99.73a33,33,0,1,1,33-33A33,33,0,0,1,66.74,99.73Z"/><path class="cls-6" d="M91.89,45.43a38.09,38.09,0,0,1-11,22.43C69,78.44,52.61,84,37.7,82.37A33,33,0,1,0,91.89,45.43Z"/><path class="cls-7" d="M90.54,46.47c-31.66-28.35-67,7.88-49.24,36.23C41.57,54.57,66.74,39.79,90.54,46.47Z"/><path class="cls-8" d="M66.74,2.11V16.18A49.75,49.75,0,0,0,58,17L55.52,3.08A64.76,64.76,0,0,1,66.74,2.11Z"/><path d="M44.64,6l4.81,13.22a49.29,49.29,0,0,0-8,3.74l-7-12.18A62.51,62.51,0,0,1,44.64,6Z"/><path d="M25.22,17.26l9,10.77A49.47,49.47,0,0,0,28,34.26l-10.77-9A64.36,64.36,0,0,1,25.22,17.26Z"/><path d="M10.79,34.44l12.17,7a50.51,50.51,0,0,0-3.74,8L6,44.64A64.11,64.11,0,0,1,10.79,34.44Z"/><path d="M3.09,55.51,16.94,58a50.86,50.86,0,0,0-.77,8.79H2.11A65,65,0,0,1,3.09,55.51Z"/><path d="M19.22,84,6,88.84A63.51,63.51,0,0,1,3.09,78l13.85-2.44A50.29,50.29,0,0,0,19.22,84Z"/><path d="M28,99.23l-10.76,9a63.08,63.08,0,0,1-6.47-9.22L23,92A50.59,50.59,0,0,0,28,99.23Z"/><path d="M41.46,110.53l-7,12.17a63.85,63.85,0,0,1-9.22-6.47l9-10.77A51.08,51.08,0,0,0,41.46,110.53Z"/><path d="M58,116.55,55.52,130.4a63.62,63.62,0,0,1-10.88-2.92l4.81-13.21A49.37,49.37,0,0,0,58,116.55Z"/><path d="M75.53,116.55,78,130.4a64.88,64.88,0,0,1-11.23,1V117.31A51,51,0,0,0,75.53,116.55Z"/><path d="M92,110.53l7,12.17a64.53,64.53,0,0,1-10.2,4.78L84,114.27A49.64,49.64,0,0,0,92,110.53Z"/><path d="M105.46,99.23l10.77,9a63.76,63.76,0,0,1-8,8l-9-10.77A49.55,49.55,0,0,0,105.46,99.23Z"/><path d="M114.26,84l13.22,4.81a63.71,63.71,0,0,1-4.78,10.2l-12.18-7A49.29,49.29,0,0,0,114.26,84Z"/><path d="M117.31,66.75h14.06a64.73,64.73,0,0,1-1,11.21l-13.86-2.43A49.86,49.86,0,0,0,117.31,66.75Z"/><path d="M130.4,55.52,116.54,58a49.62,49.62,0,0,0-2.28-8.51l13.22-4.81A64.8,64.8,0,0,1,130.4,55.52Z"/><path d="M122.7,34.44l-12.18,7a49.66,49.66,0,0,0-5.06-7.21l10.77-9A65,65,0,0,1,122.7,34.44Z"/><path d="M88.85,6,84,19.23A49.62,49.62,0,0,0,75.53,17L78,3.08A64,64,0,0,1,88.85,6Z"/><path d="M108.27,17.26,99.23,28A49.81,49.81,0,0,0,92,23l7-12.18A64.47,64.47,0,0,1,108.27,17.26Z"/><path class="cls-9" d="M131.37,66.75H117.31a50,50,0,0,0-.77-8.79l13.86-2.44A64.88,64.88,0,0,1,131.37,66.75Z"/><path class="cls-9" d="M116.54,75.53,130.4,78a64.66,64.66,0,0,1-2.92,10.89L114.26,84A49.37,49.37,0,0,0,116.54,75.53Z"/><path class="cls-9" d="M127.48,44.64l-13.22,4.81a48.79,48.79,0,0,0-3.74-8l12.18-7A64.11,64.11,0,0,1,127.48,44.64Z"/><path class="cls-9" d="M110.52,92l12.18,7a63.76,63.76,0,0,1-6.47,9.21l-10.77-9A48.8,48.8,0,0,0,110.52,92Z"/><path class="cls-9" d="M116.23,25.22l-10.77,9A48.89,48.89,0,0,0,99.23,28l9-10.77A63.68,63.68,0,0,1,116.23,25.22Z"/><path class="cls-9" d="M99.23,105.46l9,10.77a64.41,64.41,0,0,1-9.22,6.47l-7-12.17A50.51,50.51,0,0,0,99.23,105.46Z"/><path class="cls-9" d="M99.05,10.78,92,23a49.09,49.09,0,0,0-8-3.73L88.85,6A63.61,63.61,0,0,1,99.05,10.78Z"/><path class="cls-9" d="M84,114.27l4.81,13.21A63.87,63.87,0,0,1,78,130.4l-2.44-13.85A49.62,49.62,0,0,0,84,114.27Z"/><path class="cls-9" d="M78,3.08,75.53,17a50,50,0,0,0-8.79-.77V2.11A65,65,0,0,1,78,3.08Z"/><path class="cls-9" d="M66.74,117.31v14.07a64.76,64.76,0,0,1-11.22-1L58,116.55A50.92,50.92,0,0,0,66.74,117.31Z"/><path class="cls-9" d="M55.52,3.08,58,17a49.48,49.48,0,0,0-8.52,2.28L44.64,6A63.64,63.64,0,0,1,55.52,3.08Z"/><path class="cls-9" d="M49.45,114.27l-4.81,13.21a63.71,63.71,0,0,1-10.2-4.78l7-12.17A50.14,50.14,0,0,0,49.45,114.27Z"/><path class="cls-9" d="M34.43,10.79l7,12.18A50.21,50.21,0,0,0,34.25,28l-9-10.77A63.76,63.76,0,0,1,34.43,10.79Z"/><path class="cls-9" d="M34.25,105.46l-9,10.77a65.05,65.05,0,0,1-8-8l10.76-9A50.92,50.92,0,0,0,34.25,105.46Z"/><path class="cls-9" d="M17.26,25.22l10.77,9A50.51,50.51,0,0,0,23,41.47l-12.17-7A63.08,63.08,0,0,1,17.26,25.22Z"/><path class="cls-9" d="M23,92l-12.17,7A62.56,62.56,0,0,1,6,88.84L19.22,84A51,51,0,0,0,23,92Z"/><path class="cls-9" d="M6,44.64l13.21,4.81A50.29,50.29,0,0,0,16.94,58L3.09,55.51A64,64,0,0,1,6,44.64Z"/><path class="cls-9" d="M16.94,75.53,3.09,78a64.76,64.76,0,0,1-1-11.22H16.17A50.83,50.83,0,0,0,16.94,75.53Z"/><path class="cls-10" d="M63.26,12.57a1.76,1.76,0,0,1-2.49.22,2.52,2.52,0,0,1-.52-1.48L60,7.85a2.21,2.21,0,0,1,.26-1.46,1.86,1.86,0,0,1,2.49-.22,2.2,2.2,0,0,1,.51,1.4L63.52,11A2.54,2.54,0,0,1,63.26,12.57ZM62,12.25a.44.44,0,0,0,.38-.24,1.69,1.69,0,0,0,.07-.87l-.31-3.52c0-.54-.2-.82-.45-.87h-.24a.41.41,0,0,0-.3.18,1.21,1.21,0,0,0-.08.77l.31,3.52a1.85,1.85,0,0,0,.2.86A.46.46,0,0,0,62,12.25Z"/><path class="cls-10" d="M49.67,15.59l-.1-.41a3.3,3.3,0,0,1-.11-1.13,7.49,7.49,0,0,1,.25-1.36s.06-.21.16-.57a7.07,7.07,0,0,1,.23-.76A2.89,2.89,0,0,0,50,9.86c-.16-.6-.37-.87-.63-.8s-.29.26-.26.61c0,.15.06.33.11.54l.24.89-1,.27-.12-.43a4.4,4.4,0,0,1-.22-1.82,1.16,1.16,0,0,1,.53-.77,2,2,0,0,1,.55-.22,1.2,1.2,0,0,1,.65,0,1.1,1.1,0,0,1,.54.31,2.8,2.8,0,0,1,.67,1.3,3.38,3.38,0,0,1,.07,1.57,13.66,13.66,0,0,1-.36,1.32,5.51,5.51,0,0,0-.32,1.87l1.62-.43.22.84Z"/><path class="cls-10" d="M53.23,10.31A1.05,1.05,0,0,1,54,9.75,1,1,0,0,1,55,10a3.67,3.67,0,0,1,.69,1.51l.1.39a3,3,0,0,1,.08,1.59,1.69,1.69,0,0,1-2.69.36,4.2,4.2,0,0,1-.54-1.31l-.76-2.88c-.27-1-.21-1.71.19-2.1A2,2,0,0,1,53,7.14a1.3,1.3,0,0,1,1.15.13,2.34,2.34,0,0,1,.69,1.28l.09.36-1,.26,0-.14a3.09,3.09,0,0,0-.3-.83.33.33,0,0,0-.41-.12.38.38,0,0,0-.32.33,3,3,0,0,0,.14.9Zm.9,3a.43.43,0,0,0,.46.12.41.41,0,0,0,.34-.29,1.73,1.73,0,0,0-.08-.72l-.18-.67a2.35,2.35,0,0,0-.32-.8.37.37,0,0,0-.41-.16.72.72,0,0,0-.36.22.4.4,0,0,0-.1.31l.34,1.26A1.88,1.88,0,0,0,54.13,13.27Z"/><path class="cls-10" d="M45,17.25a1.42,1.42,0,0,1-.89,1,1.34,1.34,0,0,1-1.28.06,2.79,2.79,0,0,1-1-1.26l-.2-.43.94-.44.21.46a2.54,2.54,0,0,0,.43.71.41.41,0,0,0,.47,0A.42.42,0,0,0,44,17a3.15,3.15,0,0,0-.32-.93,2.64,2.64,0,0,0-.54-.85.54.54,0,0,0-.61,0l-.28.13-.36-.76.28-.13a.55.55,0,0,0,.37-.46,2,2,0,0,0-.23-.84,1.84,1.84,0,0,0-.45-.68.41.41,0,0,0-.44,0,.36.36,0,0,0-.24.35,2,2,0,0,0,.22.73l.09.2-1,.45-.1-.21a2.42,2.42,0,0,1-.3-1.46,1.42,1.42,0,0,1,.87-.92,1.47,1.47,0,0,1,1.3-.08,2.35,2.35,0,0,1,1,1.14,2.49,2.49,0,0,1,.25,1,1,1,0,0,1-.28.73,1.15,1.15,0,0,1,.81.33,3.39,3.39,0,0,1,.64,1A2.77,2.77,0,0,1,45,17.25Z"/><path class="cls-10" d="M35.22,23.07a1.39,1.39,0,0,1-.7,1.14,1.35,1.35,0,0,1-1.25.29,2.84,2.84,0,0,1-1.17-1.08L31.83,23l.85-.59.28.41a2.47,2.47,0,0,0,.56.63.38.38,0,0,0,.46-.05.4.4,0,0,0,.18-.46,2.9,2.9,0,0,0-.47-.86,2.65,2.65,0,0,0-.68-.74.54.54,0,0,0-.61.06l-.25.18-.49-.69.25-.17a.56.56,0,0,0,.29-.52,1.89,1.89,0,0,0-.38-.79,1.87,1.87,0,0,0-.56-.59.42.42,0,0,0-.43,0,.37.37,0,0,0-.18.39A1.89,1.89,0,0,0,31,20l.12.18-.87.61-.13-.18a2.41,2.41,0,0,1-.55-1.39,1.38,1.38,0,0,1,.7-1.05,1.45,1.45,0,0,1,1.26-.31,2.24,2.24,0,0,1,1.14,1,2.45,2.45,0,0,1,.43.92,1,1,0,0,1-.15.77,1.1,1.1,0,0,1,.84.19,3.17,3.17,0,0,1,.81.85A2.75,2.75,0,0,1,35.22,23.07Z"/><path class="cls-10" d="M37.74,22a1.29,1.29,0,0,1-2-.4l-.53-.74.85-.6.46.66c.19.27.36.4.51.4a.52.52,0,0,0,.22-.1l0,0c.2-.14.16-.4-.11-.79l-1.06-1.52a1.55,1.55,0,0,0-.41-.43.3.3,0,0,0-.37,0c-.24.16-.22.44.05.82l-.82.53-2.13-3,2.2-1.54.57.81L33.79,17l.85,1.21a.53.53,0,0,1,.09-.37,1,1,0,0,1,.31-.33.89.89,0,0,1,1-.05,4.63,4.63,0,0,1,1.22,1.31,10,10,0,0,1,.9,1.43,1.91,1.91,0,0,1,.21.73A1.26,1.26,0,0,1,37.74,22Z"/><path class="cls-10" d="M27.43,30.57l-4.2-4.12a1,1,0,0,1-.09.46,1.48,1.48,0,0,1-.29.43l-.58-.58a1.59,1.59,0,0,0,.26-.67,1.52,1.52,0,0,0-.11-.78l.6-.61,5.18,5.08Z"/><path class="cls-10" d="M29.09,28.87l-.3-.3a3.62,3.62,0,0,1-.67-.92,8.05,8.05,0,0,1-.48-1.29s-.06-.21-.16-.58-.16-.62-.19-.77a2.77,2.77,0,0,0-.81-1.25c-.45-.44-.76-.56-.95-.37s-.12.37.09.65a4,4,0,0,0,.37.42l.66.64-.74.75-.32-.31a4.44,4.44,0,0,1-1.12-1.46,1.16,1.16,0,0,1,.05-.92,2.83,2.83,0,0,1,.37-.48,1.24,1.24,0,0,1,.55-.34,1.19,1.19,0,0,1,.62,0,2.81,2.81,0,0,1,1.25.77,3.46,3.46,0,0,1,.86,1.32,12.55,12.55,0,0,1,.36,1.31,5.64,5.64,0,0,0,.68,1.77l1.17-1.19.62.61Z"/><path class="cls-10" d="M21.14,39l-.35-.24a3.62,3.62,0,0,1-.81-.8,7.08,7.08,0,0,1-.69-1.2L19,36.18c-.16-.34-.26-.59-.31-.73a2.83,2.83,0,0,0-1-1.1q-.76-.54-1-.21c-.13.17-.07.39.19.63a2.93,2.93,0,0,0,.43.34l.75.53-.6.87-.37-.26A4.43,4.43,0,0,1,15.79,35a1.21,1.21,0,0,1-.1-.92,2.22,2.22,0,0,1,.29-.54,1.23,1.23,0,0,1,.49-.42,1.15,1.15,0,0,1,.61-.11,2.83,2.83,0,0,1,1.35.56,3.28,3.28,0,0,1,1.07,1.17A12.91,12.91,0,0,1,20.07,36a5.59,5.59,0,0,0,1,1.64l1-1.37.71.49Z"/><path class="cls-10" d="M24.51,33.5a1.41,1.41,0,0,1-.3,1.23,1.43,1.43,0,0,1-1.05.7A2.08,2.08,0,0,1,21.78,35l-.46-.32a2.92,2.92,0,0,1-.71-.69,1.32,1.32,0,0,1-.27-.74,1.82,1.82,0,0,1-1.62-.43,2.13,2.13,0,0,1-.92-1.09,1.51,1.51,0,0,1,.34-1.23,1.45,1.45,0,0,1,1-.73,2.11,2.11,0,0,1,1.34.5,1.8,1.8,0,0,1,.95,1.37,1.35,1.35,0,0,1,.79,0,3.09,3.09,0,0,1,.91.45l.41.29A2.26,2.26,0,0,1,24.51,33.5Zm-4.07-1.12a.3.3,0,0,0,.21-.15h0a.29.29,0,0,0,.06-.25.67.67,0,0,0-.2-.33,3.92,3.92,0,0,0-.56-.46,5.54,5.54,0,0,0-.59-.36.45.45,0,0,0-.32,0,.39.39,0,0,0-.21.18.36.36,0,0,0-.09.26c0,.16.25.41.71.73S20.25,32.42,20.44,32.38Zm2.61,2a.4.4,0,0,0,.39-.2.37.37,0,0,0,0-.43,2.72,2.72,0,0,0-.58-.5l-.48-.34q-.91-.64-1.17-.27a.39.39,0,0,0,0,.46,2,2,0,0,0,.6.59l.49.34A2.15,2.15,0,0,0,23.05,34.39Z"/><path class="cls-10" d="M18.51,44,18,45.09a12.66,12.66,0,0,1-2.2-1.43c-.63-.51-1.14-.95-1.54-1.31l-.83-.77c-.16-.14-.28-.26-.37-.35l-.17-.15L12.1,43l-.89-.39,1.28-2.93.73.32a1.92,1.92,0,0,1,.41.32l.6.58A17.2,17.2,0,0,0,18.51,44Z"/><path class="cls-10" d="M14.4,56.22,14,56.11a3.42,3.42,0,0,1-1-.45,8,8,0,0,1-1.07-.88l-.42-.42c-.28-.26-.46-.45-.56-.56a2.72,2.72,0,0,0-1.34-.67c-.6-.16-.93-.1-1,.15s.08.39.41.53A4.38,4.38,0,0,0,9.5,54l.89.23-.26,1-.43-.11A4.34,4.34,0,0,1,8,54.42a1.14,1.14,0,0,1-.42-.83A2.23,2.23,0,0,1,7.65,53,1.3,1.3,0,0,1,8,52.42a1.13,1.13,0,0,1,.53-.31,2.71,2.71,0,0,1,1.46,0,3.23,3.23,0,0,1,1.41.7,12.9,12.9,0,0,1,1,.95A6,6,0,0,0,13.82,55l.41-1.63.84.22Z"/><path class="cls-10" d="M15.52,50a1.3,1.3,0,0,1,.22,1.23,1.35,1.35,0,0,1-.69,1,2.1,2.1,0,0,1-1.44,0l-.39-.09.26-1,.15,0a2.86,2.86,0,0,0,.89.13.33.33,0,0,0,.3-.27c0-.16,0-.26,0-.32l-.17-.14a2.88,2.88,0,0,0-.61-.19l-1-.27a1.24,1.24,0,0,1,0,.69,1.1,1.1,0,0,1-.77.88,3.4,3.4,0,0,1-1.64-.09l-.26-.07a2.67,2.67,0,0,1-1.65-.89,1.52,1.52,0,0,1-.1-1.15,1.64,1.64,0,0,1,.52-.93,1.26,1.26,0,0,1,.83-.24,5.66,5.66,0,0,1,1.22.21l2.81.7A3.11,3.11,0,0,1,15.52,50Zm-3.4.37a.42.42,0,0,0-.23-.54l-1.34-.33a2.25,2.25,0,0,0-.77-.1.41.41,0,0,0-.18.72,2.16,2.16,0,0,0,.74.29l.62.16a2.55,2.55,0,0,0,.84.11A.38.38,0,0,0,12.12,50.39Z"/><path class="cls-10" d="M13.34,64.57,7.49,64a.89.89,0,0,1,.22.42,1.51,1.51,0,0,1,0,.51l-.82-.08a1.32,1.32,0,0,0-.21-.7,1.49,1.49,0,0,0-.57-.54l.09-.85,7.22.75Z"/><path class="cls-10" d="M13.48,59.69a1.41,1.41,0,0,1,.33,1.21A1.47,1.47,0,0,1,13.24,62a2.23,2.23,0,0,1-1.44.25l-.55,0a3,3,0,0,1-1-.27,1.29,1.29,0,0,1-.6-.51,1.8,1.8,0,0,1-1.62.41,2.06,2.06,0,0,1-1.34-.51,1.47,1.47,0,0,1-.3-1.23A1.49,1.49,0,0,1,7,59a2.13,2.13,0,0,1,1.42-.21,1.77,1.77,0,0,1,1.5.73,1.4,1.4,0,0,1,.7-.36,3.1,3.1,0,0,1,1,0l.49.06A2.26,2.26,0,0,1,13.48,59.69Zm-4.11,1a.31.31,0,0,0,.12-.23h0a.35.35,0,0,0-.06-.25A.8.8,0,0,0,9.09,60a4,4,0,0,0-.71-.13,3.39,3.39,0,0,0-.69,0,.51.51,0,0,0-.31.1.45.45,0,0,0-.1.26.47.47,0,0,0,0,.28c.09.13.42.23,1,.29A1.65,1.65,0,0,0,9.37,60.69Zm3.26.48a.38.38,0,0,0,.25-.36.37.37,0,0,0-.17-.4,2.36,2.36,0,0,0-.75-.16l-.59-.06c-.73-.08-1.12,0-1.15.33s.07.28.25.39a2,2,0,0,0,.81.22l.6.06A1.9,1.9,0,0,0,12.63,61.17Z"/><path class="cls-10" d="M14.19,74.62l-.42,0a3.38,3.38,0,0,1-1.14-.07,7.12,7.12,0,0,1-1.3-.44l-.55-.25c-.34-.15-.58-.26-.72-.34a2.82,2.82,0,0,0-1.48-.15c-.62.07-.92.23-.89.49s.21.34.56.35a2.88,2.88,0,0,0,.56,0l.91-.1.12,1.05-.44,0a4.41,4.41,0,0,1-1.84,0,1.18,1.18,0,0,1-.68-.63A2.13,2.13,0,0,1,6.74,74a1.15,1.15,0,0,1,.09-.64,1.18,1.18,0,0,1,.38-.48,2.89,2.89,0,0,1,1.39-.48,3.36,3.36,0,0,1,1.57.17c.46.18.88.36,1.24.54a5.4,5.4,0,0,0,1.81.6L13,72l.86-.1Z"/><path class="cls-10" d="M13.76,70.72l-.43,0a3.6,3.6,0,0,1-1.13-.06,7.58,7.58,0,0,1-1.31-.45L10.35,70c-.35-.15-.59-.27-.72-.34a2.92,2.92,0,0,0-1.48-.16c-.62.07-.92.24-.89.5s.21.33.56.35l.56,0,.91-.1.12,1.05-.45,0a4.21,4.21,0,0,1-1.83,0,1.14,1.14,0,0,1-.68-.62,1.89,1.89,0,0,1-.14-.59,1.24,1.24,0,0,1,.08-.64,1.25,1.25,0,0,1,.39-.49,2.78,2.78,0,0,1,1.38-.47,3.26,3.26,0,0,1,1.58.17c.46.18.88.36,1.24.54a5.89,5.89,0,0,0,1.81.6l-.19-1.67.86-.09Z"/><path class="cls-10" d="M14.12,79.6a1.28,1.28,0,0,1,.79,1,1.4,1.4,0,0,1-.11,1.21,2.19,2.19,0,0,1-1.26.71l-.38.11-.27-1,.15,0a3.23,3.23,0,0,0,.84-.32.33.33,0,0,0,.12-.39c0-.16-.1-.25-.17-.26a.93.93,0,0,0-.22,0,2.28,2.28,0,0,0-.62.13l-1.05.28a1.2,1.2,0,0,1,.32.61A1.09,1.09,0,0,1,12,82.69a3.33,3.33,0,0,1-1.48.72l-.25.07a2.64,2.64,0,0,1-1.88,0,1.45,1.45,0,0,1-.64-.94,1.56,1.56,0,0,1,0-1.07,1.21,1.21,0,0,1,.61-.61,6.54,6.54,0,0,1,1.17-.43l2.79-.75A3.06,3.06,0,0,1,14.12,79.6Zm-2.79,2a.4.4,0,0,0-.46-.36l-1.33.36a2.33,2.33,0,0,0-.72.29.38.38,0,0,0-.13.42.37.37,0,0,0,.33.3,2.15,2.15,0,0,0,.78-.11l.62-.17A2.15,2.15,0,0,0,11.2,82,.35.35,0,0,0,11.33,81.59Z"/><path class="cls-10" d="M18,89.58a1.41,1.41,0,0,1,1,.89,1.3,1.3,0,0,1,0,1.28,2.79,2.79,0,0,1-1.26,1l-.43.2L17,92l.45-.21a2.64,2.64,0,0,0,.72-.43.41.41,0,0,0,0-.47.4.4,0,0,0-.43-.26,3.06,3.06,0,0,0-.93.31,2.38,2.38,0,0,0-.85.54.53.53,0,0,0-.05.61l.13.28-.76.35-.13-.28a.55.55,0,0,0-.46-.37,2,2,0,0,0-.84.23,1.7,1.7,0,0,0-.68.45.39.39,0,0,0,0,.43.39.39,0,0,0,.35.25,2,2,0,0,0,.73-.22l.19-.09.45,1-.21.09a2.4,2.4,0,0,1-1.46.29,1.38,1.38,0,0,1-.91-.87,1.47,1.47,0,0,1-.07-1.3,2.19,2.19,0,0,1,1.14-1,2.33,2.33,0,0,1,1-.25.94.94,0,0,1,.73.28,1.08,1.08,0,0,1,.34-.8,3.08,3.08,0,0,1,1-.64A2.68,2.68,0,0,1,18,89.58Z"/><path class="cls-10" d="M17.68,87.72l-5.35,2.46a1,1,0,0,1,.4.25,1.48,1.48,0,0,1,.3.42l-.75.35a1.4,1.4,0,0,0-.53-.49,1.44,1.44,0,0,0-.77-.18l-.36-.78,6.6-3Z"/><path class="cls-10" d="M24.27,99.16l-4.95,3.19a.82.82,0,0,1,.43.19,1.36,1.36,0,0,1,.35.37l-.69.44a1.35,1.35,0,0,0-.6-.4,1.46,1.46,0,0,0-.78-.07l-.46-.72,6.1-3.93Z"/><path class="cls-10" d="M22.17,95.9l-1.08.69,1,1.5-.68.44L16.17,100l-.64-1,4.28-2.75-.3-.47.75-.48.3.47,1.08-.69Zm-1.32,2-.5-.79-3,1.94Z"/><path class="cls-10" d="M31.32,106.92l-.31.3a3.35,3.35,0,0,1-.93.64,6.85,6.85,0,0,1-1.31.45l-.57.15c-.37.09-.63.15-.78.17a2.77,2.77,0,0,0-1.27.79q-.67.64-.39.93c.15.16.37.13.65-.07a5.18,5.18,0,0,0,.42-.36l.66-.64.74.75-.32.31a4.44,4.44,0,0,1-1.48,1.09,1.18,1.18,0,0,1-.93-.08A2.09,2.09,0,0,1,25,111a1.12,1.12,0,0,1-.33-.56,1.15,1.15,0,0,1,0-.61,2.79,2.79,0,0,1,.8-1.23,3.39,3.39,0,0,1,1.34-.83c.48-.14.92-.26,1.32-.34a5.42,5.42,0,0,0,1.79-.63l-1.17-1.2.62-.6Z"/><path class="cls-10" d="M26.43,102.51a1.76,1.76,0,0,1,1.74,1.79,2.47,2.47,0,0,1-.82,1.34l-2.48,2.42a2.23,2.23,0,0,1-1.31.71,1.51,1.51,0,0,1-1.21-.55,1.54,1.54,0,0,1-.53-1.23,2.28,2.28,0,0,1,.76-1.29l2.48-2.41A2.47,2.47,0,0,1,26.43,102.51Zm.57,1.2a.5.5,0,0,0-.43-.15,1.82,1.82,0,0,0-.72.51l-2.53,2.46c-.39.37-.51.67-.39.89a1.49,1.49,0,0,0,.15.19.5.5,0,0,0,.34.11c.14,0,.36-.14.64-.42l2.54-2.46a1.82,1.82,0,0,0,.53-.71A.46.46,0,0,0,27,103.71Z"/><path class="cls-10" d="M36.07,110.5l-3.12,5a.82.82,0,0,1,.47,0,1.46,1.46,0,0,1,.48.19l-.44.69a1.39,1.39,0,0,0-.71-.11,1.45,1.45,0,0,0-.74.27l-.73-.46,3.85-6.14Z"/><path class="cls-10" d="M44.74,116.1a1.44,1.44,0,0,1,1.34,0,1.36,1.36,0,0,1,.9.92,2.87,2.87,0,0,1-.31,1.56l-.19.43-.95-.41.2-.46a2.42,2.42,0,0,0,.25-.8.46.46,0,0,0-.77-.28,2.81,2.81,0,0,0-.49.85,2.42,2.42,0,0,0-.27,1,.51.51,0,0,0,.37.48l.28.13-.33.77-.28-.13a.56.56,0,0,0-.59,0,1.9,1.9,0,0,0-.48.73,1.78,1.78,0,0,0-.21.79.41.41,0,0,0,.27.34.39.39,0,0,0,.43,0,1.83,1.83,0,0,0,.39-.65l.09-.2,1,.43-.09.21a2.4,2.4,0,0,1-.9,1.19,1.38,1.38,0,0,1-1.26,0,1.47,1.47,0,0,1-.92-.92,2.22,2.22,0,0,1,.22-1.47,2.38,2.38,0,0,1,.57-.84,1,1,0,0,1,.73-.28,1.14,1.14,0,0,1-.28-.82,3.22,3.22,0,0,1,.3-1.14A2.87,2.87,0,0,1,44.74,116.1Z"/><path class="cls-10" d="M41.12,114.52a1.43,1.43,0,0,1,1.34,0,1.38,1.38,0,0,1,.89.93A2.68,2.68,0,0,1,43,117l-.18.43-1-.41.2-.46a2.28,2.28,0,0,0,.24-.8.38.38,0,0,0-.28-.37.41.41,0,0,0-.49.09,3.2,3.2,0,0,0-.49.85,2.81,2.81,0,0,0-.27,1,.51.51,0,0,0,.37.48l.29.13-.34.77-.28-.12a.54.54,0,0,0-.59,0,2,2,0,0,0-.48.74,1.87,1.87,0,0,0-.21.78.41.41,0,0,0,.28.34.36.36,0,0,0,.42,0,2,2,0,0,0,.4-.65l.08-.2,1,.43-.09.21a2.4,2.4,0,0,1-.9,1.19,1.38,1.38,0,0,1-1.26-.05,1.48,1.48,0,0,1-.92-.91,2.3,2.3,0,0,1,.22-1.48,2.48,2.48,0,0,1,.57-.84,1,1,0,0,1,.73-.28,1.13,1.13,0,0,1-.28-.82,3.39,3.39,0,0,1,.31-1.13A2.79,2.79,0,0,1,41.12,114.52Z"/><path class="cls-10" d="M55.08,119.11l-1.46,5.69a1,1,0,0,1,.45-.15,1.45,1.45,0,0,1,.51,0l-.21.79a1.38,1.38,0,0,0-.71.11,1.45,1.45,0,0,0-.62.48l-.83-.21,1.8-7Z"/><path class="cls-10" d="M50.89,122.36a1.07,1.07,0,0,1-1,.12,1,1,0,0,1-.76-.73,3.61,3.61,0,0,1,.13-1.66l.1-.39a3,3,0,0,1,.71-1.43,1.36,1.36,0,0,1,1.33-.19,1.37,1.37,0,0,1,1.19,1.2,4.24,4.24,0,0,1-.16,1.4l-.75,2.88c-.26,1-.66,1.6-1.19,1.74a1.94,1.94,0,0,1-1,0,1.31,1.31,0,0,1-.93-.67,2.32,2.32,0,0,1,0-1.46l.09-.36,1,.26,0,.14a3.65,3.65,0,0,0-.14.87.35.35,0,0,0,.3.31.39.39,0,0,0,.44-.14,2.89,2.89,0,0,0,.31-.85Zm.66-3a.43.43,0,0,0-.34-.34.41.41,0,0,0-.44.09,1.59,1.59,0,0,0-.28.67l-.18.67a2.63,2.63,0,0,0-.11.86.36.36,0,0,0,.29.33.63.63,0,0,0,.41,0,.4.4,0,0,0,.24-.22l.33-1.27A2,2,0,0,0,51.55,119.35Z"/><path class="cls-10" d="M65.39,121l0,.42a3.36,3.36,0,0,1-.31,1.1,6.64,6.64,0,0,1-.72,1.17l-.35.48c-.23.31-.39.52-.49.63a2.86,2.86,0,0,0-.48,1.42c-.07.62,0,.94.29,1s.37-.14.46-.47a4.63,4.63,0,0,0,.1-.55l.1-.92,1,.12,0,.44a4.42,4.42,0,0,1-.45,1.78,1.2,1.2,0,0,1-.76.53,2.43,2.43,0,0,1-.61,0,1.29,1.29,0,0,1-.61-.23,1.21,1.21,0,0,1-.38-.48,2.85,2.85,0,0,1-.17-1.45,3.47,3.47,0,0,1,.51-1.5c.28-.41.54-.78.8-1.1a5.46,5.46,0,0,0,1-1.63l-1.67-.18.1-.86Z"/><path class="cls-10" d="M60,120.36l-.14,1.28,1.78.19-.09.81-2.15,5-1.17-.13.55-5.06-.55-.06.09-.88.56.06.14-1.27Zm.69,2.26-.93-.1-.39,3.56Z"/><path class="cls-10" d="M71.38,120.75c1-.08,1.47.39,1.54,1.38L73,123l-1,.08-.06-.8q0-.5-.24-.6a.41.41,0,0,0-.24,0h0c-.24,0-.35.26-.31.74l.14,1.85a1.76,1.76,0,0,0,.12.58.32.32,0,0,0,.34.17c.28,0,.41-.26.37-.73l1,0,.27,3.69-2.68.19-.07-1,1.66-.12-.11-1.47a.6.6,0,0,1-.26.27,1.07,1.07,0,0,1-.44.12.89.89,0,0,1-.92-.49,4.7,4.7,0,0,1-.38-1.75,11.58,11.58,0,0,1,0-1.69,2,2,0,0,1,.2-.73A1.27,1.27,0,0,1,71.38,120.75Z"/><path class="cls-10" d="M83,118.37l1.47,5.7a.85.85,0,0,1,.31-.35,1.54,1.54,0,0,1,.47-.22l.2.8a1.42,1.42,0,0,0-.57.44,1.38,1.38,0,0,0-.31.72l-.83.22-1.81-7Z"/><path class="cls-10" d="M78.24,120.05a1.44,1.44,0,0,1,1.08-.82,1.47,1.47,0,0,1,1.34.19,2.52,2.52,0,0,1,.76,1.38l.86,3.36a2.26,2.26,0,0,1,0,1.49,1.88,1.88,0,0,1-2.42.62,2.23,2.23,0,0,1-.73-1.29l-.87-3.36A2.52,2.52,0,0,1,78.24,120.05Zm1.33.1a.45.45,0,0,0-.34.3,1.69,1.69,0,0,0,.08.87l.87,3.42c.14.52.34.78.59.78a1,1,0,0,0,.24,0,.41.41,0,0,0,.26-.23,1.22,1.22,0,0,0,0-.77l-.88-3.42a1.82,1.82,0,0,0-.35-.82A.46.46,0,0,0,79.57,120.15Z"/><path class="cls-10" d="M92.76,114.52l.17.39A3.47,3.47,0,0,1,93.2,116a8.52,8.52,0,0,1,0,1.38s0,.21-.08.59a5.41,5.41,0,0,1-.12.78,2.84,2.84,0,0,0,.28,1.47c.25.58.49.81.73.71s.26-.3.17-.64c0-.14-.1-.32-.18-.52l-.37-.85,1-.41.18.41a4.38,4.38,0,0,1,.48,1.77,1.18,1.18,0,0,1-.4.83,2.3,2.3,0,0,1-.52.3,1.25,1.25,0,0,1-.65.11,1.27,1.27,0,0,1-.57-.23,2.79,2.79,0,0,1-.85-1.19,3.42,3.42,0,0,1-.3-1.55c0-.5.09-1,.16-1.35a5.37,5.37,0,0,0,0-1.9l-1.54.66-.34-.8Z"/><path class="cls-10" d="M87,117.47a1.4,1.4,0,0,1,.92-1,1.34,1.34,0,0,1,1.28,0,2.75,2.75,0,0,1,.92,1.29l.19.43-.95.41-.2-.46a2.84,2.84,0,0,0-.41-.73.4.4,0,0,0-.47,0,.4.4,0,0,0-.27.42,3.18,3.18,0,0,0,.28.94,2.88,2.88,0,0,0,.52.86.53.53,0,0,0,.61.06l.28-.12.33.77-.28.12a.55.55,0,0,0-.38.45,2,2,0,0,0,.2.85,1.81,1.81,0,0,0,.43.69.41.41,0,0,0,.43,0,.4.4,0,0,0,.26-.35,1.86,1.86,0,0,0-.2-.73l-.09-.2,1-.42.08.21a2.36,2.36,0,0,1,.25,1.47,1.37,1.37,0,0,1-.9.89,1.47,1.47,0,0,1-1.29,0,2.19,2.19,0,0,1-.92-1.18,2.28,2.28,0,0,1-.23-1,1,1,0,0,1,.3-.72,1.14,1.14,0,0,1-.79-.36,3.18,3.18,0,0,1-.61-1A2.79,2.79,0,0,1,87,117.47Z"/><path class="cls-10" d="M96.82,112.09a1.43,1.43,0,0,1,.73-1,1.48,1.48,0,0,1,1.24-.27,2.14,2.14,0,0,1,1.11.95l.31.46a2.94,2.94,0,0,1,.4.91,1.39,1.39,0,0,1,0,.79,1.77,1.77,0,0,1,1.34,1,2.16,2.16,0,0,1,.46,1.36,1.51,1.51,0,0,1-.77,1,1.48,1.48,0,0,1-1.22.31,2.2,2.2,0,0,1-1.07-1A1.8,1.8,0,0,1,99,115a1.25,1.25,0,0,1-.71-.31,3,3,0,0,1-.69-.76l-.27-.41A2.26,2.26,0,0,1,96.82,112.09Zm1.69-.29a.38.38,0,0,0-.44,0,.35.35,0,0,0-.2.38,2.3,2.3,0,0,0,.34.68l.33.5c.41.62.74.84,1,.68a.41.41,0,0,0,.14-.44,2,2,0,0,0-.34-.77l-.33-.5A2,2,0,0,0,98.51,111.8Zm1.69,2.83a.32.32,0,0,0-.26.06h0a.37.37,0,0,0-.15.22.78.78,0,0,0,.07.38,3.57,3.57,0,0,0,.35.63,3.09,3.09,0,0,0,.41.55.48.48,0,0,0,.28.17.4.4,0,0,0,.27-.09.44.44,0,0,0,.18-.21c0-.16-.09-.47-.4-.94S100.38,114.66,100.2,114.63Z"/><path class="cls-10" d="M105.83,104.57a1.45,1.45,0,0,1,.53-1.24,1.38,1.38,0,0,1,1.2-.45,2.74,2.74,0,0,1,1.31.89l.32.35-.75.71-.34-.37a2.66,2.66,0,0,0-.64-.54.39.39,0,0,0-.45.11.42.42,0,0,0-.12.49,3.35,3.35,0,0,0,.6.78,2.46,2.46,0,0,0,.78.63.51.51,0,0,0,.59-.14l.23-.22.57.61-.22.21a.56.56,0,0,0-.21.56,1.92,1.92,0,0,0,.48.72,2,2,0,0,0,.64.51.45.45,0,0,0,.43-.12.41.41,0,0,0,.12-.41,2,2,0,0,0-.44-.62l-.15-.16.77-.73.16.17a2.42,2.42,0,0,1,.74,1.29,1.37,1.37,0,0,1-.54,1.14,1.48,1.48,0,0,1-1.21.49,2.29,2.29,0,0,1-1.26-.79,2.34,2.34,0,0,1-.56-.86,1,1,0,0,1,0-.77,1.12,1.12,0,0,1-.86-.07,3.31,3.31,0,0,1-.93-.73A2.86,2.86,0,0,1,105.83,104.57Z"/><path class="cls-10" d="M102.85,107.35a1.46,1.46,0,0,1,.55-1.24,1.49,1.49,0,0,1,1.27-.48,2.59,2.59,0,0,1,1.33.85l2.37,2.52a2.26,2.26,0,0,1,.7,1.32,1.87,1.87,0,0,1-1.82,1.71,2.28,2.28,0,0,1-1.27-.78l-2.37-2.53A2.42,2.42,0,0,1,102.85,107.35Zm1.21-.55a.43.43,0,0,0-.15.42,1.57,1.57,0,0,0,.49.73l2.41,2.58c.37.38.67.52.9.4l.18-.15a.45.45,0,0,0,.12-.33c0-.15-.14-.37-.41-.66l-2.42-2.57a1.86,1.86,0,0,0-.7-.55A.46.46,0,0,0,104.06,106.8Z"/><path class="cls-10" d="M111.89,96.11l4.79,3.42a.88.88,0,0,1,0-.48,1.4,1.4,0,0,1,.22-.46l.67.48a1.45,1.45,0,0,0-.16.7,1.5,1.5,0,0,0,.23.76l-.5.69L111.24,97Z"/><path class="cls-10" d="M110.27,98.38l4.79,3.41a.94.94,0,0,1,0-.47,1.4,1.4,0,0,1,.22-.46l.67.47a1.51,1.51,0,0,0-.16.71,1.49,1.49,0,0,0,.23.75l-.5.7-5.9-4.21Z"/><path class="cls-10" d="M116.35,88.71a1.42,1.42,0,0,1,.05-1.34,1.37,1.37,0,0,1,.95-.87,2.83,2.83,0,0,1,1.54.36l.43.2-.44.93-.46-.21a2.54,2.54,0,0,0-.78-.27.39.39,0,0,0-.39.27.41.41,0,0,0,.07.49,3,3,0,0,0,.84.52,2.51,2.51,0,0,0,1,.3.53.53,0,0,0,.5-.35l.13-.29.76.36-.13.28a.54.54,0,0,0,0,.59,1.82,1.82,0,0,0,.71.5,1.69,1.69,0,0,0,.78.23.4.4,0,0,0,.35-.26.36.36,0,0,0,0-.42,1.77,1.77,0,0,0-.63-.42l-.2-.09.46-1,.2.1a2.43,2.43,0,0,1,1.17.94,1.43,1.43,0,0,1-.09,1.26,1.48,1.48,0,0,1-.95.89,2.26,2.26,0,0,1-1.46-.27,2.37,2.37,0,0,1-.83-.6,1,1,0,0,1-.25-.74,1.11,1.11,0,0,1-.83.26,3.41,3.41,0,0,1-1.12-.34A2.85,2.85,0,0,1,116.35,88.71Z"/><path class="cls-10" d="M118.76,92.38a1.07,1.07,0,0,1-.07,1,1,1,0,0,1-.86.62,3.68,3.68,0,0,1-1.61-.45l-.36-.17a3,3,0,0,1-1.27-1,1.38,1.38,0,0,1,.07-1.34,1.36,1.36,0,0,1,1.4-.94,4.1,4.1,0,0,1,1.34.42l2.69,1.28c1,.45,1.45.95,1.49,1.51a2,2,0,0,1-.21.92,1.37,1.37,0,0,1-.84.79,2.36,2.36,0,0,1-1.43-.3l-.34-.16.44-.93.14.06a3.27,3.27,0,0,0,.82.31.33.33,0,0,0,.36-.24.36.36,0,0,0,0-.45,2.56,2.56,0,0,0-.77-.48Zm-2.84-1.21a.4.4,0,0,0-.39.27.39.39,0,0,0,0,.44,1.68,1.68,0,0,0,.61.41l.62.29a2.43,2.43,0,0,0,.82.28.38.38,0,0,0,.38-.22.63.63,0,0,0,.07-.41.41.41,0,0,0-.17-.28l-1.18-.56A1.83,1.83,0,0,0,115.92,91.17Z"/><path class="cls-10" d="M119.38,78.08,125,79.7a.89.89,0,0,1-.14-.45,1.43,1.43,0,0,1,0-.51l.79.23a1.31,1.31,0,0,0,.09.72,1.47,1.47,0,0,0,.46.63l-.24.83-7-2Z"/><path class="cls-10" d="M118.46,82.92a1.4,1.4,0,0,1-.17-1.33,1.31,1.31,0,0,1,.8-1,2.69,2.69,0,0,1,1.58.1l.45.13-.28,1-.49-.13a2.48,2.48,0,0,0-.82-.15.39.39,0,0,0-.33.33.4.4,0,0,0,.15.48,3.1,3.1,0,0,0,.91.37,2.41,2.41,0,0,0,1,.14.51.51,0,0,0,.43-.42l.09-.3.81.23-.09.29a.55.55,0,0,0,.11.58,1.75,1.75,0,0,0,.78.38,1.83,1.83,0,0,0,.81.11.44.44,0,0,0,.31-.32.38.38,0,0,0-.11-.41,1.85,1.85,0,0,0-.7-.31l-.2-.06.29-1,.22.07a2.47,2.47,0,0,1,1.3.73,1.37,1.37,0,0,1,.11,1.26,1.44,1.44,0,0,1-.79,1,2.21,2.21,0,0,1-1.48,0,2.47,2.47,0,0,1-.92-.45,1,1,0,0,1-.36-.69,1.08,1.08,0,0,1-.78.38,3.28,3.28,0,0,1-1.17-.15A2.76,2.76,0,0,1,118.46,82.92Z"/><path class="cls-10" d="M120.37,68.17l.43,0a3.33,3.33,0,0,1,1.1.26,8,8,0,0,1,1.21.67s.18.13.49.34a7.21,7.21,0,0,1,.64.46,2.79,2.79,0,0,0,1.44.42q.93.06,1-.33c0-.22-.15-.37-.49-.44a3.55,3.55,0,0,0-.55-.07l-.92-.07.07-1,.45,0a4.29,4.29,0,0,1,1.79.38,1.16,1.16,0,0,1,.56.74,1.91,1.91,0,0,1,0,.6,1.2,1.2,0,0,1-.2.62,1.12,1.12,0,0,1-.46.4,2.79,2.79,0,0,1-1.45.23,3.27,3.27,0,0,1-1.51-.45,11.62,11.62,0,0,1-1.13-.76,5.64,5.64,0,0,0-1.67-.9L121,70.94l-.86,0Z"/><path class="cls-10" d="M120,73.48l.08-1.2a13.24,13.24,0,0,1,2.55.6c.76.27,1.39.51,1.88.72l1,.44.47.21a.84.84,0,0,0,.21.08l.14-2,1,.07-.22,3.19-.8-.05a2.89,2.89,0,0,1-.49-.17l-.76-.35A17.19,17.19,0,0,0,120,73.48Z"/><path class="cls-10" d="M124.4,61.21a1,1,0,0,1,.4.88,1,1,0,0,1-.46.95,3.48,3.48,0,0,1-1.62.38l-.4,0a3,3,0,0,1-1.58-.23,1.38,1.38,0,0,1-.58-1.22,1.35,1.35,0,0,1,.77-1.49,4,4,0,0,1,1.38-.27l3-.18c1-.06,1.72.15,2,.61a1.92,1.92,0,0,1,.26.91,1.29,1.29,0,0,1-.36,1.1,2.28,2.28,0,0,1-1.39.42l-.37,0-.07-1h.15a3.16,3.16,0,0,0,.88-.12.36.36,0,0,0,.2-.39.39.39,0,0,0-.26-.37,2.93,2.93,0,0,0-.92,0Zm-3.07.3a.42.42,0,0,0-.22.43.44.44,0,0,0,.22.39,1.76,1.76,0,0,0,.73.06l.68,0a2.41,2.41,0,0,0,.86-.16.37.37,0,0,0,.23-.37.65.65,0,0,0-.14-.39.41.41,0,0,0-.28-.16l-1.31.08A1.81,1.81,0,0,0,121.33,61.51Z"/><path class="cls-10" d="M119.08,51.73a1.42,1.42,0,0,1-.82-1.06,1.36,1.36,0,0,1,.18-1.28,2.76,2.76,0,0,1,1.41-.71l.46-.11.26,1-.49.12a2.4,2.4,0,0,0-.78.3.37.37,0,0,0-.12.45.39.39,0,0,0,.37.33,2.74,2.74,0,0,0,1-.14,2.46,2.46,0,0,0,.93-.38.52.52,0,0,0,.16-.58l-.08-.31.81-.2.08.29a.54.54,0,0,0,.39.45,1.82,1.82,0,0,0,.86-.07,1.78,1.78,0,0,0,.75-.32.42.42,0,0,0,.11-.42.4.4,0,0,0-.31-.31,1.93,1.93,0,0,0-.75.09l-.21.05-.26-1,.21-.06a2.46,2.46,0,0,1,1.5,0,1.37,1.37,0,0,1,.73,1,1.44,1.44,0,0,1-.16,1.29,2.22,2.22,0,0,1-1.29.73,2.29,2.29,0,0,1-1,.07,1,1,0,0,1-.67-.41,1.11,1.11,0,0,1-.47.73,3.08,3.08,0,0,1-1.09.45A2.78,2.78,0,0,1,119.08,51.73Z"/><path class="cls-10" d="M119.36,54.67l1.24-.32-.44-1.73.79-.2,5.4.27.29,1.14-4.93,1.26.14.54-.87.22-.13-.54-1.25.32Zm1.87-1.44.23.9,3.47-.88Z"/><path class="cls-10" d="M114.41,42.4l5.2-2.76a.8.8,0,0,1-.42-.23,1.35,1.35,0,0,1-.32-.4l.73-.38a1.4,1.4,0,0,0,.56.45,1.44,1.44,0,0,0,.77.14l.41.75-6.41,3.41Z"/><path class="cls-10" d="M116.19,45.74l-.57-1.06a13,13,0,0,1,2.48-.84c.8-.17,1.46-.3,2-.38l1.12-.18.51-.07.22,0-1-1.82.86-.45,1.5,2.83-.71.37a2.15,2.15,0,0,1-.5.12l-.83.11A17.2,17.2,0,0,0,116.19,45.74Z"/><path class="cls-10" d="M109.13,32.89l.35-.25a3.43,3.43,0,0,1,1-.49,8.12,8.12,0,0,1,1.36-.25l.6,0a7.68,7.68,0,0,1,.79-.05,2.86,2.86,0,0,0,1.37-.58q.76-.54.54-.87t-.66,0a3.54,3.54,0,0,0-.47.3l-.75.53-.61-.86L113,30a4.48,4.48,0,0,1,1.63-.85,1.18,1.18,0,0,1,.9.22,2.29,2.29,0,0,1,.41.45,1.27,1.27,0,0,1,.23.6,1.18,1.18,0,0,1-.1.61,2.82,2.82,0,0,1-1,1.09,3.29,3.29,0,0,1-1.46.61,11.76,11.76,0,0,1-1.35.13,5.64,5.64,0,0,0-1.87.36l1,1.36-.7.5Z"/><path class="cls-10" d="M112.07,37.18a1.3,1.3,0,0,1,.39-2l.74-.53.6.85-.65.46q-.41.28-.39.51a.35.35,0,0,0,.1.22v0c.14.2.4.16.79-.11l1.51-1.08a1.61,1.61,0,0,0,.44-.4.33.33,0,0,0,0-.38c-.16-.23-.44-.21-.82.06l-.53-.82,3-2.14L118.8,34l-.81.57-1-1.36-1.2.85a.67.67,0,0,1,.37.09,1.08,1.08,0,0,1,.33.31.89.89,0,0,1,.06,1,4.78,4.78,0,0,1-1.31,1.23,10.08,10.08,0,0,1-1.42.9,2,2,0,0,1-.73.22A1.3,1.3,0,0,1,112.07,37.18Z"/><path class="cls-10" d="M104.08,28l.28-.33a3.18,3.18,0,0,1,.86-.73,6.83,6.83,0,0,1,1.26-.58l.56-.2c.36-.13.61-.21.75-.25A2.82,2.82,0,0,0,109,25c.4-.48.51-.8.3-1s-.38-.1-.64.13a3.77,3.77,0,0,0-.39.4l-.59.71-.81-.68.29-.35A4.4,4.4,0,0,1,108.51,23a1.13,1.13,0,0,1,.92,0,2.18,2.18,0,0,1,.51.33,1.27,1.27,0,0,1,.38.52,1.18,1.18,0,0,1,.05.62,2.78,2.78,0,0,1-.68,1.3,3.28,3.28,0,0,1-1.25.95c-.46.19-.89.35-1.28.47a5.4,5.4,0,0,0-1.72.8l1.28,1.08-.56.66Z"/><path class="cls-10" d="M95.18,21.34l.24-.36a3.37,3.37,0,0,1,.76-.84,8.28,8.28,0,0,1,1.17-.73s.2-.09.54-.27.57-.28.71-.34a2.86,2.86,0,0,0,1.07-1.05c.33-.52.39-.85.17-1s-.39,0-.62.22a3.3,3.3,0,0,0-.33.45l-.5.77-.89-.57.25-.38A4.2,4.2,0,0,1,99,15.85a1.15,1.15,0,0,1,.91-.13,2.44,2.44,0,0,1,.55.26,1.34,1.34,0,0,1,.44.48,1.2,1.2,0,0,1,.13.6,2.8,2.8,0,0,1-.51,1.37,3.2,3.2,0,0,1-1.12,1.11c-.44.25-.84.46-1.21.63a5.44,5.44,0,0,0-1.6,1l1.4.92-.47.72Z"/><path class="cls-10" d="M98.81,23.69l3.2-4.94a.83.83,0,0,1-.47,0,1.46,1.46,0,0,1-.48-.19l.45-.69a1.5,1.5,0,0,0,1.45-.14l.72.47-3.94,6.09Z"/><path class="cls-10" d="M89.17,18.29l.51-1.17L88,16.41l.32-.75,3.51-4.11L93,12l-2,4.68.52.22-.35.82-.52-.22-.5,1.17Zm0-2.36.86.37L91.45,13Z"/><path class="cls-10" d="M78.41,14.56l1.43-5.71a.89.89,0,0,1-.45.15,1.44,1.44,0,0,1-.51,0l.2-.79a1.48,1.48,0,0,0,.71-.12,1.45,1.45,0,0,0,.62-.48l.83.2-1.76,7Z"/><path class="cls-10" d="M83.12,15.29a1.31,1.31,0,0,1-1.24.22,1.35,1.35,0,0,1-1-.69,2.16,2.16,0,0,1,0-1.44L81,13l1,.26,0,.14a2.94,2.94,0,0,0-.13.9.31.31,0,0,0,.27.29c.16.05.27,0,.32,0a1.15,1.15,0,0,0,.14-.17,2.35,2.35,0,0,0,.19-.61l.27-1a1.24,1.24,0,0,1-.69,0,1.1,1.1,0,0,1-.88-.77,3.4,3.4,0,0,1,.09-1.64l.07-.26a2.58,2.58,0,0,1,.89-1.65,1.45,1.45,0,0,1,1.14-.1,1.58,1.58,0,0,1,.94.51,1.29,1.29,0,0,1,.24.83,6.31,6.31,0,0,1-.21,1.23l-.7,2.81A3.16,3.16,0,0,1,83.12,15.29Zm-.38-3.41a.41.41,0,0,0,.54-.23l.33-1.33a2,2,0,0,0,.09-.77.35.35,0,0,0-.3-.32.37.37,0,0,0-.42.14,2.12,2.12,0,0,0-.28.73l-.16.63a2.55,2.55,0,0,0-.11.84A.36.36,0,0,0,82.74,11.88Z"/><path class="cls-10" d="M70.79,12.45a1.41,1.41,0,0,1-1.27.42,1.33,1.33,0,0,1-1.14-.58,2.77,2.77,0,0,1-.21-1.58l0-.47,1,.09,0,.5a2.47,2.47,0,0,0,0,.83.38.38,0,0,0,.38.27.4.4,0,0,0,.44-.24,3.3,3.3,0,0,0,.19-1,2.41,2.41,0,0,0-.06-1,.52.52,0,0,0-.5-.34l-.31,0,.07-.83.3,0a.56.56,0,0,0,.55-.21,1.75,1.75,0,0,0,.22-.85,1.82,1.82,0,0,0-.05-.81.43.43,0,0,0-.37-.24.38.38,0,0,0-.38.19,1.69,1.69,0,0,0-.17.74l0,.22-1.06-.1V7.26A2.44,2.44,0,0,1,69,5.84a1.41,1.41,0,0,1,1.2-.36,1.48,1.48,0,0,1,1.17.58,2.19,2.19,0,0,1,.26,1.46,2.32,2.32,0,0,1-.27,1,.94.94,0,0,1-.6.49,1.13,1.13,0,0,1,.53.69,3.28,3.28,0,0,1,.07,1.17A2.79,2.79,0,0,1,70.79,12.45Z"/><path class="cls-10" d="M72.18,13l0-.42a3.79,3.79,0,0,1,.28-1.1,8.31,8.31,0,0,1,.69-1.2s.13-.18.35-.48A6.75,6.75,0,0,1,74,9.17a2.85,2.85,0,0,0,.44-1.43c.06-.62,0-.94-.31-1s-.37.15-.45.49a3.26,3.26,0,0,0-.08.55l-.08.92-1-.09,0-.45a4.38,4.38,0,0,1,.4-1.79,1.22,1.22,0,0,1,.75-.55,2.31,2.31,0,0,1,.6,0,1.24,1.24,0,0,1,.61.21,1.14,1.14,0,0,1,.4.47A2.73,2.73,0,0,1,75.47,8,3.24,3.24,0,0,1,75,9.47c-.26.42-.52.79-.77,1.12a5.39,5.39,0,0,0-.93,1.65l1.66.14-.07.86Z"/><path class="cls-11" d="M39.59,65.64a2.81,2.81,0,0,1,.28,1.23,2.76,2.76,0,0,1-.26,1.19,2.81,2.81,0,1,1,0-2.42Z"/><path class="cls-12" d="M68,94.09a2.82,2.82,0,1,1-2.41,0,2.82,2.82,0,0,1,2.41,0Z"/><path class="cls-13" d="M94,65.56a2.82,2.82,0,1,1-.26,1.19A2.82,2.82,0,0,1,94,65.56Z"/><path class="cls-14" d="M68,39.51a2.81,2.81,0,0,1-1.23.28,2.75,2.75,0,0,1-1.18-.26,2.82,2.82,0,1,1,2.41,0Z"/><path class="cls-15" d="M71.23,62.38a6.26,6.26,0,1,1-9.08.11l.17-.18a6.25,6.25,0,0,1,8.85,0Zm0,4.37a4.51,4.51,0,1,0-4.51,4.49A4.51,4.51,0,0,0,71.25,66.75Z"/><path class="cls-16" d="M71.25,66.75a4.51,4.51,0,1,1-4.51-4.51A4.5,4.5,0,0,1,71.25,66.75Z"/><path class="cls-17" d="M71.21,62.33h0a6.25,6.25,0,0,0-8.85,0c2.73-7.55,3.22-22.05,3.24-22.78a2.75,2.75,0,0,0,1.18.26A2.81,2.81,0,0,0,68,39.51S68.42,54.6,71.21,62.33Z"/><path class="cls-18" d="M63.34,58.79a33.07,33.07,0,0,1-1,3.52,6.25,6.25,0,0,1,8.85,0h0a37.67,37.67,0,0,1-1.3-4.81A11.45,11.45,0,0,0,63.34,58.79Z"/><path class="cls-19" d="M60.48,66.75a6.25,6.25,0,0,0,2,4.57l-.19-.07c-7.62-2.69-22.09-3.17-22.67-3.19a2.76,2.76,0,0,0,.26-1.19,2.81,2.81,0,0,0-.28-1.23s14.75-.43,22.56-3.15A6.22,6.22,0,0,0,60.48,66.75Z"/><path class="cls-20" d="M62.47,71.32a6.25,6.25,0,0,1-.32-8.83c-.79.28-1.65.53-2.56.76a7.81,7.81,0,0,0,.17,7.25c.89.23,1.74.48,2.52.75Z"/><path class="cls-21" d="M71.21,71.24C68.46,78.77,68,93.39,68,94.09a2.82,2.82,0,0,0-2.41,0S65.09,79,62.28,71.25l.19.07a6.29,6.29,0,0,0,8.64-.08l.1,0Z"/><path class="cls-22" d="M71.21,71.2l-.1,0a6.29,6.29,0,0,1-8.64.08l-.19-.07c.3.83.57,1.75.82,2.72a11.55,11.55,0,0,0,6.72,2.48,35.87,35.87,0,0,1,1.39-5.21Z"/><path class="cls-23" d="M71.21,62.33c7.56,2.72,22,3.2,22.75,3.23A2.82,2.82,0,0,0,94,68c-.42,0-15.14.48-22.77,3.23l-.1,0a6.25,6.25,0,0,0,.12-8.86S71.22,62.35,71.21,62.33Z"/><path class="cls-24" d="M75.21,63.45a32.65,32.65,0,0,1-4-1.12s0,0,0,.05a6.25,6.25,0,0,1-.12,8.86l.1,0a38.22,38.22,0,0,1,5.37-1.41A10.53,10.53,0,0,0,75.21,63.45Z"/><rect class="cls-25" x="66.53" y="101.14" width="0.42" height="32.35"/><rect class="cls-26" x="66.53" width="0.42" height="32.35"/><rect class="cls-27" x="75.31" y="100.37" width="0.42" height="32.35" transform="translate(-19.09 14.88) rotate(-10)"/><rect class="cls-28" x="57.75" y="0.77" width="0.42" height="32.35" transform="translate(-2.06 10.32) rotate(-10)"/><rect class="cls-29" x="83.83" y="98.09" width="0.42" height="32.35" transform="translate(-34.01 35.64) rotate(-20)"/><rect class="cls-30" x="49.24" y="3.05" width="0.42" height="32.35" transform="translate(-3.59 18.07) rotate(-20)"/><rect class="cls-31" x="91.81" y="94.35" width="0.42" height="32.37" transform="translate(-42.94 60.82) rotate(-30)"/><rect class="cls-32" x="41.25" y="6.77" width="0.42" height="32.37" transform="translate(-5.92 23.81) rotate(-30)"/><rect class="cls-33" x="99.03" y="89.29" width="0.42" height="32.37" transform="translate(-44.58 88.46) rotate(-40)"/><rect class="cls-34" x="34.03" y="11.83" width="0.42" height="32.37" transform="translate(-9.99 28.57) rotate(-40)"/><polygon class="cls-35" points="117.74 109.81 92.94 89 93.21 88.68 118.01 109.48 117.74 109.81"/><rect class="cls-36" x="27.8" y="18.06" width="0.42" height="32.37" transform="translate(-16.23 33.69) rotate(-50)"/><rect class="cls-37" x="110.32" y="75.85" width="0.42" height="32.36" transform="translate(-24.43 141.73) rotate(-60)"/><rect class="cls-38" x="22.75" y="25.28" width="0.42" height="32.37" transform="translate(-24.43 40.61) rotate(-60)"/><polygon class="cls-39" points="129.39 89.77 98.99 78.7 99.14 78.31 129.53 89.37 129.39 89.77"/><rect class="cls-40" x="19.01" y="33.27" width="0.42" height="32.35" transform="translate(-33.82 50.6) rotate(-70)"/><polygon class="cls-41" points="132.44 78.54 100.58 72.92 100.65 72.51 132.51 78.13 132.44 78.54"/><rect class="cls-42" x="16.73" y="41.79" width="0.42" height="32.35" transform="translate(-43.08 64.58) rotate(-80)"/><rect class="cls-43" x="101.14" y="66.53" width="32.35" height="0.42"/><rect class="cls-44" y="66.53" width="32.35" height="0.42"/><polygon class="cls-45" points="100.65 60.98 100.58 60.56 132.44 54.95 132.51 55.36 100.65 60.98"/><rect class="cls-46" x="0.77" y="75.31" width="32.35" height="0.42" transform="translate(-13.04 4.17) rotate(-10.15)"/><rect class="cls-47" x="98.09" y="49.24" width="32.35" height="0.42" transform="translate(-10.01 41.89) rotate(-19.92)"/><rect class="cls-48" x="3.05" y="83.83" width="32.35" height="0.42" transform="translate(-27.59 11.65) rotate(-20.01)"/><polygon class="cls-49" points="96.62 49.74 96.41 49.37 124.44 33.19 124.65 33.55 96.62 49.74"/><rect class="cls-50" x="6.77" y="91.81" width="32.37" height="0.42" transform="translate(-42.94 23.81) rotate(-30.01)"/><polygon class="cls-51" points="93.21 44.81 92.94 44.49 117.74 23.68 118.01 24 93.21 44.81"/><rect class="cls-52" x="11.83" y="99.03" width="32.37" height="0.42" transform="matrix(0.77, -0.64, 0.64, 0.77, -57.25, 41.25)"/><rect class="cls-53" x="83.06" y="27.8" width="32.37" height="0.42" transform="translate(13.98 86.01) rotate(-49.98)"/><rect class="cls-54" x="18.06" y="105.26" width="32.37" height="0.42" transform="translate(-68.58 63.95) rotate(-50.02)"/><rect class="cls-55" x="75.84" y="22.75" width="32.37" height="0.42" transform="translate(26.17 91.21) rotate(-60.03)"/><polygon class="cls-56" points="33.55 124.65 33.19 124.44 49.37 96.41 49.74 96.62 33.55 124.65"/><rect class="cls-57" x="67.86" y="19.01" width="32.35" height="0.42" transform="translate(37.29 91.66) rotate(-70.04)"/><rect class="cls-58" x="33.27" y="114.05" width="32.35" height="0.42" transform="translate(-74.84 121.6) rotate(-69.98)"/><rect class="cls-59" x="59.35" y="16.73" width="32.35" height="0.42" transform="translate(45.61 88.33) rotate(-79.91)"/><polygon class="cls-60" points="55.36 132.51 54.95 132.44 60.56 100.58 60.98 100.65 55.36 132.51"/><path class="cls-61" d="M66.74,131.8A65.06,65.06,0,1,1,131.8,66.74,65.13,65.13,0,0,1,66.74,131.8Zm0-129.27A64.22,64.22,0,1,0,131,66.74,64.29,64.29,0,0,0,66.74,2.53Z"/><path class="cls-61" d="M66.74,117.73a51,51,0,1,1,51-51A51,51,0,0,1,66.74,117.73Zm0-101.13a50.15,50.15,0,1,0,50.15,50.14A50.19,50.19,0,0,0,66.74,16.6Z"/><path class="cls-62" d="M66.74,32.35a34.4,34.4,0,1,0,34.4,34.39A34.43,34.43,0,0,0,66.74,32.35Zm0,67.1A32.71,32.71,0,1,1,99.45,66.74,32.74,32.74,0,0,1,66.74,99.45Z"/><path class="cls-63" d="M66.74,16.18a50.57,50.57,0,1,0,50.57,50.56A50.62,50.62,0,0,0,66.74,16.18Zm0,99A48.46,48.46,0,1,1,115.2,66.74,48.51,48.51,0,0,1,66.74,115.2Z"/><path class="cls-64" d="M66.74,0a66.75,66.75,0,1,0,66.75,66.74A66.74,66.74,0,0,0,66.74,0Zm0,131.38a64.64,64.64,0,1,1,64.64-64.64A64.71,64.71,0,0,1,66.74,131.38Z"/></g></g></g></svg>