<svg xmlns="http://www.w3.org/2000/svg" viewBox="0 0 244.74 207.19"><defs><style>.cls-1{fill:#fff;fill-rule:evenodd;}</style></defs><g id="Layer_2" data-name="Layer 2"><g id="Capa_1" data-name="Capa 1"><path class="cls-1" d="M178.36,124V82.32l16.12-13.44v71.67c0,21-13,36.72-37.18,39.41-20.15,2.24-36.72-9-36.72-25.08,0-22.84,34.93-41.21,57.78-30.91ZM234.79,1.25c2.69-1.79,6.27-1.79,8.51.89a5.37,5.37,0,0,1-.89,8.07L9.94,205.94c-2.68,1.79-6.27,1.79-8.51-.9a5.86,5.86,0,0,1,.9-8.51ZM156.41,49.17,84.3,57.68v52L68.17,123.08V18.27L194.48,3.49V17.37Zm-73,112.88c-3.14,16.57-15.68,28.21-36.28,30.9h-.45Zm-72.56,9.4a9.8,9.8,0,0,1-.45-3.58c0-21.5,24.19-35.39,45.24-34Z"/></g></g></svg>