<svg xmlns="http://www.w3.org/2000/svg" viewBox="0 0 11.2 10.8"><defs><style>.cls-1{fill:#fff;fill-rule:evenodd;}</style></defs><g id="Layer_2" data-name="Layer 2"><g id="Capa_1" data-name="Capa 1"><path class="cls-1" d="M.81,6.34h9.58A.74.74,0,0,1,11.2,7h0a.74.74,0,0,1-.81.64H.81A.75.75,0,0,1,0,7H0a.74.74,0,0,1,.81-.65Zm0-3.17h9.58a.74.74,0,0,1,.81.64h0a.74.74,0,0,1-.81.65H.81A.75.75,0,0,1,0,3.81H0a.74.74,0,0,1,.81-.64ZM.81,0h9.58a.74.74,0,0,1,.81.64h0a.74.74,0,0,1-.81.65H.81A.74.74,0,0,1,0,.64H0A.74.74,0,0,1,.81,0Zm0,9.51h9.58a.74.74,0,0,1,.81.65h0a.74.74,0,0,1-.81.64H.81A.75.75,0,0,1,0,10.16H0A.74.74,0,0,1,.81,9.51Z"/></g></g></svg>