<svg xmlns="http://www.w3.org/2000/svg" viewBox="0 0 13.53 11.26"><defs><style>.cls-1{fill:none;stroke-width:0.5px;}.cls-1,.cls-2{stroke:#fff;stroke-linecap:round;stroke-linejoin:round;fill-rule:evenodd;}.cls-2{fill:#fff;stroke-width:0.22px;}</style></defs><g id="Layer_2" data-name="Layer 2"><g id="Capa_1" data-name="Capa 1"><path class="cls-1" d="M9.33,7.6l3.95-3.95m0,4L9.33,3.65"/><path class="cls-2" d="M6.72,11,2.92,7.71a.63.63,0,0,0-.49-.16H.75a.64.64,0,0,1-.64-.64V4.35a.64.64,0,0,1,.64-.64H2.43a.63.63,0,0,0,.49-.16L6.72.22a.41.41,0,0,1,.69.31v10.2A.4.4,0,0,1,6.72,11Z"/></g></g></svg>