<svg xmlns="http://www.w3.org/2000/svg" viewBox="0 0 22.7 22.7"><defs><style>.cls-1{fill:#9e8133;stroke:#fff;stroke-linecap:round;stroke-linejoin:round;stroke-width:0.5px;}.cls-2{fill:#fff;fill-rule:evenodd;}</style></defs><g id="Layer_2" data-name="Layer 2"><g id="Capa_1" data-name="Capa 1"><circle class="cls-1" cx="11.35" cy="11.35" r="11.1"/><path class="cls-2" d="M9.79,11.53,8,13.94l1.79,2.35h-1L7.68,14.75l-.24-.36h0l-.25.36L6.08,16.29h-1L6.93,14,5.16,11.53h1l1,1.63c.08.12.16.24.23.37h0l1.36-2ZM15.9,9.12a1.73,1.73,0,0,0-.16-.78,1.55,1.55,0,0,0-.43-.55,1.74,1.74,0,0,0-.65-.33,2.86,2.86,0,0,0-.8-.11,3,3,0,0,0-.73.09,4.34,4.34,0,0,0-.69.24,4.78,4.78,0,0,0-.65.38,4.43,4.43,0,0,0-.59.48V7.35a3.82,3.82,0,0,1,1.2-.7A4.75,4.75,0,0,1,14,6.41a4.52,4.52,0,0,1,1.26.17,3.1,3.1,0,0,1,1,.51,2.33,2.33,0,0,1,.67.82A2.52,2.52,0,0,1,17.19,9a3.39,3.39,0,0,1-.15,1,3.19,3.19,0,0,1-.45.88,4.4,4.4,0,0,1-.77.79,10.91,10.91,0,0,1-1.1.78c-.52.32-.94.6-1.28.83a5,5,0,0,0-.81.65,2,2,0,0,0-.41.6,1.67,1.67,0,0,0-.13.69h5.53v1H10.77v-.48a3.35,3.35,0,0,1,.16-1.1,2.63,2.63,0,0,1,.51-.9,5.23,5.23,0,0,1,.93-.85q.57-.44,1.41-1a9.94,9.94,0,0,0,1-.73,4.21,4.21,0,0,0,.66-.69,2.55,2.55,0,0,0,.35-.7A2.68,2.68,0,0,0,15.9,9.12Z"/></g></g></svg>