<svg xmlns="http://www.w3.org/2000/svg" viewBox="0 0 31.12 31.12"><defs><style>.cls-1{fill:#fff;}.cls-1,.cls-2,.cls-3{fill-rule:evenodd;}.cls-2{fill:#0693cf;}.cls-3{fill:#0880b6;}</style></defs><g id="Layer_2" data-name="Layer 2"><g id="Capa_1" data-name="Capa 1"><path class="cls-1" d="M15.56,0A15.56,15.56,0,1,1,0,15.56,15.56,15.56,0,0,1,15.56,0Z"/><path class="cls-2" d="M23,2.64A15,15,0,0,1,28.48,8.1L26.26,9.38a12.33,12.33,0,0,1,1.65,6.18h2.57a15,15,0,0,1-2,7.46l-2.22-1.28a12.48,12.48,0,0,1-4.52,4.52L23,28.48a14.86,14.86,0,0,1-7.46,2h0V27.91a12.33,12.33,0,0,1-6.18-1.65L8.1,28.48A15,15,0,0,1,2.64,23l2.22-1.28A12.23,12.23,0,0,1,3.2,15.56H.64a14.83,14.83,0,0,1,2-7.46L4.86,9.38A12.25,12.25,0,0,1,9.38,4.86L8.1,2.64a14.83,14.83,0,0,1,7.46-2V3.2a12.23,12.23,0,0,1,6.18,1.66L23,2.64ZM15.56,5.27A10.29,10.29,0,1,0,25.84,15.56,10.29,10.29,0,0,0,15.56,5.27Zm0-1a11.3,11.3,0,1,0,11.3,11.3A11.3,11.3,0,0,0,15.56,4.26Z"/><path class="cls-3" d="M23,2.64A15,15,0,0,1,28.48,8.1l-1,.57a13.84,13.84,0,0,0-5-5l.58-1Zm6.3,12.92h1.16a15,15,0,0,1-2,7.46l-1-.58a13.68,13.68,0,0,0,1.84-6.88ZM22.44,27.48l.58,1a14.86,14.86,0,0,1-7.46,2h0V29.32h0a13.68,13.68,0,0,0,6.88-1.84Zm-13.77,0-.57,1A15,15,0,0,1,2.64,23l1-.58a13.84,13.84,0,0,0,5,5ZM1.79,15.56H.64a14.83,14.83,0,0,1,2-7.46l1,.57a13.75,13.75,0,0,0-1.84,6.89ZM8.67,3.64l-.57-1a14.83,14.83,0,0,1,7.46-2V1.79A13.65,13.65,0,0,0,8.67,3.64Z"/></g></g></svg>